<svg width="104" height="104" viewBox="0 0 104 104" fill="none" xmlns="http://www.w3.org/2000/svg">
<path d="M74.2221 46.3125C74.2221 61.7267 61.7264 74.2224 46.3122 74.2224C30.898 74.2224 18.4023 61.7267 18.4023 46.3125C18.4023 30.8983 30.898 18.4026 46.3122 18.4026C61.7264 18.4026 74.2221 30.8983 74.2221 46.3125Z" stroke="#00FF94"/>
<path d="M99.125 75.5625C99.125 78.537 95.407 80.7508 94.3343 83.3374C93.2225 86.0187 94.2442 90.2032 92.2236 92.2239C90.203 94.2444 86.0185 93.2225 83.3373 94.3344C80.7508 95.407 78.537 99.125 75.5625 99.125C72.588 99.125 70.3742 95.407 67.7876 94.3343C65.1063 93.2225 60.9218 94.2442 58.9011 92.2236C56.8806 90.203 57.9025 86.0185 56.7906 83.3373C55.718 80.7508 52 78.537 52 75.5625C52 72.588 55.718 70.3742 56.7907 67.7876C57.9026 65.1063 56.8808 60.9218 58.9014 58.9011C60.922 56.8806 65.1065 57.9025 67.7877 56.7906C70.3742 55.718 72.588 52 75.5625 52C78.537 52 80.7508 55.718 83.3374 56.7907C86.0187 57.9026 90.2032 56.8808 92.2239 58.9014C94.2444 60.922 93.2225 65.1065 94.3344 67.7877C95.407 70.3742 99.125 72.588 99.125 75.5625Z" fill="#001F4D"/>
<path d="M59.1561 39.5934L52.3522 37.6232L48.3444 31.8778C48.1035 31.5686 47.7952 31.3184 47.4429 31.1464C47.0907 30.9743 46.7038 30.8849 46.3118 30.885C45.9198 30.8851 45.533 30.9746 45.1808 31.1468C44.8286 31.319 44.5204 31.5693 44.2796 31.8786L40.2726 37.6232L33.4679 39.5934C33.0814 39.7038 32.7279 39.9075 32.4386 40.1866C32.1493 40.4656 31.933 40.8115 31.8087 41.1937C31.6844 41.576 31.656 41.983 31.7258 42.3788C31.7957 42.7747 31.9618 43.1473 32.2095 43.4639L36.525 48.9736L36.3306 55.9188C36.3195 56.3165 36.4053 56.7109 36.5807 57.068C36.7562 57.4251 37.0159 57.7341 37.3375 57.9683C37.6622 58.2059 38.0399 58.3609 38.4379 58.4198C38.8359 58.4787 39.2423 58.4397 39.6219 58.3063L46.3124 55.9695L53.0004 58.3063C53.3805 58.4393 53.7871 58.478 54.1855 58.4191C54.5838 58.3602 54.9619 58.2055 55.2872 57.9683C55.6087 57.7342 55.8684 57.4253 56.0438 57.0684C56.2193 56.7114 56.3051 56.3172 56.2941 55.9196L56.0998 48.9736L60.4162 43.4631C60.6597 43.1451 60.8222 42.7726 60.8896 42.3778C60.9571 41.983 60.9276 41.5778 60.8036 41.1969C60.6796 40.8161 60.4648 40.4711 60.1778 40.1918C59.8908 39.9124 59.5401 39.7071 59.1561 39.5934ZM53.3615 47.1987C53.011 47.6479 52.8279 48.205 52.8433 48.7745L53.014 54.8682L47.1321 52.814C46.6013 52.6287 46.0235 52.6287 45.4928 52.814L39.6109 54.8682L39.7815 48.7761C39.7972 48.205 39.6131 47.6463 39.261 47.1963L35.496 42.3896L41.4398 40.6686C41.9832 40.5113 42.4564 40.1728 42.7808 39.7093L46.3124 34.6454L49.8449 39.71C50.1689 40.173 50.6415 40.5112 51.1842 40.6685L57.1288 42.3895L53.3615 47.1987Z" fill="#00FF94"/>
<path d="M85.433 68.5713C85.2822 68.4204 85.1031 68.3006 84.9059 68.2189C84.7088 68.1373 84.4975 68.0952 84.2841 68.0952C84.0707 68.0952 83.8594 68.1373 83.6623 68.2189C83.4651 68.3006 83.286 68.4204 83.1352 68.5713L72.909 78.7974L68.3704 74.2588C68.0637 73.964 67.6536 73.8012 67.2281 73.8054C66.8027 73.8097 66.3959 73.9805 66.0951 74.2814C65.7943 74.5822 65.6234 74.989 65.6192 75.4145C65.615 75.8399 65.7778 76.25 66.0727 76.5567L71.7601 82.2442C71.9109 82.3951 72.09 82.5149 72.2872 82.5965C72.4843 82.6782 72.6956 82.7203 72.909 82.7203C73.1224 82.7203 73.3337 82.6782 73.5308 82.5965C73.728 82.5149 73.9071 82.3951 74.0579 82.2442L85.4329 70.8692C85.5839 70.7184 85.7036 70.5393 85.7853 70.3421C85.867 70.145 85.9091 69.9337 85.9091 69.7203C85.9091 69.5069 85.8671 69.2956 85.7854 69.0984C85.7037 68.9013 85.5839 68.7222 85.433 68.5713Z" fill="white"/>
<path d="M97.7276 69.745C96.9082 69.0057 96.2653 68.0919 95.8463 67.071C95.4272 66.05 95.2428 64.948 95.3066 63.8463C95.2548 58.3436 92.7896 55.8653 87.2787 55.819C86.0621 55.829 84.8546 55.6083 83.7201 55.1688C88.4976 49.3737 92.6125 46.6802 85.7512 39.8936C84.6777 38.926 83.8149 37.7479 83.2164 36.4325C82.5843 33.0259 85.7023 28.1018 83.6062 24.7812C81.7095 21.2543 75.9669 21.5173 73.3199 19.3051C71.0996 16.6608 71.3756 10.9162 67.8437 9.01887C64.5273 6.93418 59.5981 10.0143 56.1926 9.42512C52.9794 8.16633 50.3314 3.12926 46.3126 3.25016C42.2986 3.1314 39.6402 8.15966 36.4329 9.42516C33.0313 10.0278 28.082 6.91419 24.7815 9.01891C21.2548 10.9169 21.5176 16.6574 19.3054 19.3052C16.661 21.5223 10.9164 21.2519 9.01912 24.7814C6.93399 28.0819 10.0146 33.0334 9.42537 36.4325C8.16666 39.6422 3.12947 42.2964 3.25037 46.3126C3.12413 50.3263 8.17211 52.9781 9.40912 56.1924C10.0375 59.5956 6.9256 64.5258 9.01912 67.8437C10.9171 71.3718 16.6575 71.1067 19.3054 73.3199C21.5226 75.9609 21.2522 81.7111 24.7816 83.6061C28.0998 85.6925 33.026 82.6094 36.4329 83.1999C37.7451 83.8111 38.9218 84.6786 39.8939 85.7513C46.6464 92.5696 49.3323 88.5601 55.1689 83.72C56.4063 86.5975 55.1572 90.8591 57.7528 93.3725C60.1647 95.8728 64.3369 94.8272 67.1614 95.8425C69.8554 97.1759 72.032 100.808 75.5627 100.75C79.091 100.808 81.2731 97.1766 83.9639 95.8425C86.7953 94.8264 90.9413 95.873 93.3727 93.3725C95.8735 90.9406 94.8268 86.7963 95.8427 83.9639C96.3399 83.0142 96.9752 82.1435 97.7277 81.3801C101.688 77.3687 101.715 73.7775 97.7276 69.745ZM50.5051 83.395C46.9147 86.9382 45.7301 86.9755 42.1201 83.3948C40.7894 81.9128 39.1235 80.7706 37.2614 80.0638C35.2444 79.7298 33.1767 79.8858 31.2326 80.5188C29.3639 80.9413 27.4301 81.3963 26.4064 80.795C25.3339 80.1775 24.7651 78.26 24.1964 76.4075C23.772 74.4308 22.8867 72.5823 21.6126 71.0125C20.0429 69.7384 18.1944 68.8531 16.2176 68.4288C11.4506 67.093 10.8486 66.2495 12.1065 61.3924C12.736 59.4477 12.892 57.3808 12.5614 55.3638C11.8545 53.5016 10.7123 51.8356 9.23015 50.505C7.89765 49.075 6.50015 47.5962 6.50015 46.3125C6.89252 43.2699 11.8892 40.5131 12.5613 37.2611C13.6271 34.1265 10.722 29.2 11.8299 26.4062C13.7074 24.0119 19.4008 24.1044 21.6125 21.6123C24.1015 19.4019 24.0111 13.7 26.4062 11.8298C29.2059 10.7275 34.1233 13.6289 37.2614 12.561C40.5229 11.8885 43.2687 6.88639 46.3125 6.4998C49.3553 6.89253 52.1026 11.8892 55.364 12.561C58.5033 13.6268 63.4218 10.722 66.219 11.8297C68.6086 13.7073 68.5243 19.4005 71.0129 21.6124C73.2276 24.1012 78.9221 24.011 80.7954 26.406C81.8924 29.206 79.0001 34.1232 80.0642 37.2612C80.7408 40.5227 85.736 43.2686 86.1254 46.3124C85.9813 48.5768 82.4476 51.0502 81.1364 53.1862C77.2199 49.3188 73.5556 49.6121 69.7453 53.3977C68.9787 54.1465 68.1085 54.7812 67.1614 55.2825C64.3276 56.2989 60.1857 55.252 57.7526 57.7526C55.2527 60.1844 56.2978 64.329 55.2826 67.1613C54.7854 68.1109 54.1502 68.9816 53.3976 69.745C49.6223 73.5274 49.3179 77.2432 53.1864 81.1363C52.2332 81.8156 51.3365 82.571 50.5051 83.395ZM95.2901 79.235C94.2426 80.2454 93.4148 81.4611 92.8584 82.806C92.302 84.1509 92.0291 85.5962 92.0567 87.0514C92.1495 88.4626 91.8092 89.8686 91.0814 91.0813C89.2221 92.5614 85.0476 91.6821 82.7127 92.8364C80.2602 93.7004 77.9751 97.312 75.5627 97.5002C73.148 97.3095 70.8685 93.6986 68.4127 92.8364C67.0171 92.3476 65.5524 92.0843 64.0739 92.0563C59.9999 91.9292 59.1905 91.1386 59.0691 87.0513C59.0983 85.5958 58.826 84.1501 58.2694 82.805C57.7128 81.4599 56.8839 80.2445 55.8349 79.2353C52.9689 76.2209 52.9562 74.9094 55.8354 71.8901C56.8828 70.8796 57.7106 69.6639 58.2669 68.319C58.8233 66.9741 59.0962 65.5289 59.0687 64.0738C58.9758 62.6625 59.316 61.2564 60.0439 60.0438C61.9027 58.5629 66.0782 59.4432 68.4126 58.2886C70.8656 57.4251 73.15 53.8125 75.5626 53.6248C76.8905 53.5849 78.5726 55.273 79.8853 56.4037C81.8342 58.194 84.4064 59.1505 87.0515 59.0685C91.124 59.1953 91.9355 59.987 92.0563 64.0739C92.0289 65.529 92.302 66.9742 92.8585 68.3191C93.4149 69.6639 94.2429 70.8795 95.2905 71.8899C98.1555 74.9027 98.1696 76.2162 95.2901 79.235Z" fill="#00FF94"/>
</svg>
