<svg width="56" height="56" viewBox="0 0 56 56" fill="none" xmlns="http://www.w3.org/2000/svg">
<path d="M46.6667 22.3997C46.6667 13.0663 42.9334 9.33301 33.6 9.33301H22.4C13.0667 9.33301 9.33337 13.0663 9.33337 22.3997V33.5997C9.33337 42.933 13.0667 46.6663 22.4 46.6663" stroke="url(#paint0_linear_8_171)" stroke-width="1.5" stroke-linecap="round" stroke-linejoin="round"/>
<path d="M38.15 18.667C36.8666 17.0337 34.72 16.3337 31.5 16.3337H24.5C18.6666 16.3337 16.3333 18.667 16.3333 24.5003V31.5003C16.3333 34.7203 17.0333 36.867 18.6433 38.1503M18.69 9.33366V4.66699M28 9.33366V4.66699M37.3333 9.33366V4.66699M46.6666 18.667H51.3333M18.69 46.667V51.3337M4.66663 18.667H9.33329M4.66663 28.0003H9.33329M4.66663 37.3337H9.33329" stroke="url(#paint1_linear_8_171)" stroke-width="1.5" stroke-linecap="round" stroke-linejoin="round"/>
<path d="M38.99 43.377C39.4772 43.377 39.9597 43.2811 40.4098 43.0946C40.8599 42.9082 41.2689 42.6349 41.6134 42.2904C41.9579 41.9459 42.2312 41.5369 42.4176 41.0868C42.6041 40.6367 42.7 40.1542 42.7 39.667C42.7 39.1798 42.6041 38.6974 42.4176 38.2473C42.2312 37.7972 41.9579 37.3882 41.6134 37.0437C41.2689 36.6992 40.8599 36.4259 40.4098 36.2394C39.9597 36.053 39.4772 35.957 38.99 35.957C38.0061 35.957 37.0624 36.3479 36.3667 37.0437C35.6709 37.7394 35.28 38.6831 35.28 39.667C35.28 40.651 35.6709 41.5946 36.3667 42.2904C37.0624 42.9862 38.0061 43.377 38.99 43.377Z" stroke="url(#paint2_linear_8_171)" stroke-width="1.5" stroke-miterlimit="10" stroke-linecap="round" stroke-linejoin="round"/>
<path d="M26.6233 40.7396V38.5696C26.6233 37.2862 27.6733 36.2362 28.9566 36.2362C31.1966 36.2362 32.1066 34.6496 30.9866 32.7129C30.8323 32.4466 30.7323 32.1524 30.6922 31.8472C30.6521 31.5421 30.6728 31.232 30.753 30.9349C30.8333 30.6378 30.9715 30.3595 31.1597 30.116C31.348 29.8725 31.5826 29.6687 31.85 29.5162L33.9733 28.2796C34.9533 27.6962 36.2133 28.0462 36.7966 29.0262L36.9366 29.2596C38.0566 31.1962 39.8766 31.1962 40.9966 29.2596L41.1366 29.0262C41.72 28.0462 42.98 27.7196 43.96 28.2796L46.0833 29.5162C47.2033 30.1696 47.6 31.5929 46.9466 32.7129C45.8266 34.6496 46.7366 36.2362 48.9766 36.2362C50.26 36.2362 51.31 37.2862 51.31 38.5696V40.7396C51.31 42.0229 50.26 43.0729 48.9766 43.0729C46.7366 43.0729 45.8266 44.6596 46.9466 46.5962C47.1009 46.8626 47.201 47.1568 47.2411 47.4619C47.2812 47.7671 47.2605 48.0771 47.1802 48.3743C47.1 48.6714 46.9618 48.9497 46.7735 49.1932C46.5852 49.4366 46.3507 49.6405 46.0833 49.7929L43.96 51.0296C42.98 51.6129 41.72 51.2629 41.1366 50.2829L40.9966 50.0496C39.8766 48.1129 38.0566 48.1129 36.9366 50.0496L36.7966 50.2829C36.2133 51.2629 34.9533 51.5896 33.9733 51.0296L31.85 49.7929C30.73 49.1396 30.3333 47.7162 30.9866 46.5962C32.1066 44.6596 31.1966 43.0729 28.9566 43.0729C28.6493 43.076 28.3445 43.0178 28.06 42.9016C27.7755 42.7855 27.517 42.6137 27.2998 42.3964C27.0825 42.1791 26.9107 41.9207 26.7945 41.6362C26.6784 41.3517 26.6202 41.0469 26.6233 40.7396Z" stroke="url(#paint3_linear_8_171)" stroke-width="1.5" stroke-miterlimit="10" stroke-linecap="round" stroke-linejoin="round"/>
<defs>
<linearGradient id="paint0_linear_8_171" x1="28" y1="9.33301" x2="28" y2="46.6663" gradientUnits="userSpaceOnUse">
<stop stop-color="#00FF94"/>
<stop offset="1" stop-color="#2880FF"/>
</linearGradient>
<linearGradient id="paint1_linear_8_171" x1="28" y1="4.66699" x2="28" y2="51.3337" gradientUnits="userSpaceOnUse">
<stop stop-color="#00FF94"/>
<stop offset="1" stop-color="#2880FF"/>
</linearGradient>
<linearGradient id="paint2_linear_8_171" x1="38.99" y1="35.957" x2="38.99" y2="43.377" gradientUnits="userSpaceOnUse">
<stop stop-color="#00FF94"/>
<stop offset="1" stop-color="#2880FF"/>
</linearGradient>
<linearGradient id="paint3_linear_8_171" x1="38.9666" y1="27.9961" x2="38.9666" y2="51.3131" gradientUnits="userSpaceOnUse">
<stop stop-color="#00FF94"/>
<stop offset="1" stop-color="#2880FF"/>
</linearGradient>
</defs>
</svg>
