<svg width="135" height="113" viewBox="0 0 135 113" fill="none" xmlns="http://www.w3.org/2000/svg">
<path fill-rule="evenodd" clip-rule="evenodd" d="M134.01 11.5107V29.8683V29.8891V29.9109V101.489C134.01 107.906 128.985 113 122.809 113H11.2001C5.02538 113 0 107.906 0 101.489V11.5107C0 5.09352 5.02538 0 11.2001 0H122.809C128.985 0 134.01 5.09352 134.01 11.5107ZM122.809 4.54271H11.2001C7.52926 4.54271 4.54271 7.59826 4.54271 11.5107V27.5402H129.467V11.5107C129.467 7.59826 126.48 4.54271 122.809 4.54271ZM11.2001 108.457H122.809C126.48 108.457 129.467 105.402 129.467 101.489V32.0829H4.54271V101.489C4.54271 105.402 7.52926 108.457 11.2001 108.457ZM43.2342 16.1942C43.2342 20.8899 39.5449 24.7101 35.0101 24.7101C30.4754 24.7101 26.7861 20.8897 26.7861 16.1942C26.7861 11.4987 30.4754 7.67831 35.0101 7.67831C39.5449 7.67831 43.2342 11.4984 43.2342 16.1942ZM38.6914 16.1942C38.6914 14.0035 37.0402 12.221 35.0101 12.221C32.9801 12.221 31.3288 14.0035 31.3288 16.1942C31.3288 18.3849 32.9801 20.1674 35.0101 20.1674C37.0402 20.1674 38.6914 18.3849 38.6914 16.1942ZM62.5799 16.1942C62.5799 20.8899 58.8906 24.7101 54.3559 24.7101C49.8214 24.7101 46.1318 20.8897 46.1318 16.1942C46.1318 11.4987 49.8211 7.67831 54.3559 7.67831C58.8906 7.67831 62.5799 11.4984 62.5799 16.1942ZM58.0372 16.1942C58.0372 14.0035 56.3859 12.221 54.3559 12.221C52.3264 12.221 50.6746 14.0035 50.6746 16.1942C50.6746 18.3849 52.3258 20.1674 54.3559 20.1674C56.3859 20.1674 58.0372 18.3849 58.0372 16.1942ZM23.8884 16.1942C23.8884 20.8899 20.1992 24.7101 15.6644 24.7101C11.1297 24.7101 7.44041 20.8897 7.44041 16.1942C7.44041 11.4987 11.1297 7.67831 15.6644 7.67831C20.1992 7.67831 23.8884 11.4984 23.8884 16.1942ZM19.3457 16.1942C19.3457 14.0035 17.6942 12.221 15.6644 12.221C13.6344 12.221 11.9831 14.0035 11.9831 16.1942C11.9831 18.3849 13.6347 20.1674 15.6644 20.1674C17.6942 20.1674 19.3457 18.3849 19.3457 16.1942ZM74.103 59.7264V80.0187C75.2828 80.5214 76.2532 81.4155 76.8505 82.5502C77.4478 83.685 77.6356 84.991 77.3821 86.2481C77.1286 87.5052 76.4494 88.6364 75.459 89.451C74.4686 90.2656 73.2276 90.7138 71.9452 90.72C70.4615 90.7193 69.0384 90.1314 67.9867 89.0848C66.9351 88.0381 66.3404 86.6178 66.3327 85.1341C66.3327 82.8764 67.8568 80.9321 69.5603 80.052V62.8277L65.3015 64.4835V83.6518C65.3109 84.1111 65.1782 84.5621 64.9217 84.9432C64.6652 85.3243 64.2973 85.6169 63.8683 85.7812C51.5437 90.3765 37.9759 90.3765 25.6513 85.7812C25.2126 85.6214 24.8327 85.3323 24.5617 84.9521C24.2907 84.572 24.1413 84.1186 24.1332 83.6518V64.4835L16.8231 61.623C16.3978 61.4536 16.0347 61.1578 15.7829 60.7755C15.5311 60.3931 15.4028 59.9427 15.4151 59.4851C15.4195 59.024 15.564 58.5751 15.8296 58.1981C16.0952 57.8212 16.4693 57.534 16.902 57.3747L44.0254 47.4043C44.53 47.2184 45.0844 47.2184 45.589 47.4043L72.7076 57.3747C73.139 57.5345 73.5114 57.8222 73.7749 58.1993C74.0384 58.5765 74.1805 59.025 74.1822 59.4851C74.1824 59.5026 74.174 59.5198 74.1656 59.537C74.1573 59.554 74.149 59.5711 74.149 59.5885C74.1503 59.6118 74.1383 59.6351 74.1262 59.6586C74.1147 59.6811 74.103 59.7037 74.103 59.7264ZM28.6759 78.0319V82.0482C39.1809 85.5623 50.5377 85.5623 60.7588 82.0482V78.0319C55.5633 79.6374 50.1553 80.4498 44.7174 80.4418C39.281 80.4288 33.8761 79.6168 28.6759 78.0319ZM28.6759 73.26C39.1809 76.775 50.5377 76.775 60.7588 73.26V66.2515L45.5711 72.18C45.324 72.282 45.0593 72.3345 44.792 72.3345C44.5038 72.3346 44.218 72.2822 43.9485 72.18L28.6759 66.2515V73.26ZM62.2037 60.8573C62.2884 60.8182 62.3755 60.7844 62.4643 60.7559L65.519 59.5663L44.8122 51.9573L24.1048 59.5663L27.16 60.7559C27.2491 60.7842 27.3363 60.8181 27.421 60.8576L44.8122 67.6259L62.2037 60.8573ZM71.392 86.0013C71.5636 86.116 71.7653 86.1772 71.9716 86.1773C72.2483 86.1769 72.5136 86.0669 72.7092 85.8713C72.9049 85.6757 73.015 85.4105 73.0153 85.1338C73.0153 84.9275 72.9541 84.7258 72.8395 84.5542C72.7249 84.3826 72.5619 84.2489 72.3713 84.1699C72.1807 84.0909 71.9709 84.0702 71.7685 84.1105C71.5661 84.1507 71.3802 84.25 71.2342 84.3959C71.0883 84.5418 70.9889 84.7277 70.9486 84.9301C70.9083 85.1325 70.9289 85.3423 71.0079 85.5329C71.0868 85.7236 71.2205 85.8866 71.392 86.0013ZM82.0528 63.0301H116.322C116.924 63.0301 117.502 63.2694 117.928 63.6954C118.354 64.1214 118.593 64.6991 118.593 65.3015C118.593 65.9039 118.354 66.4816 117.928 66.9076C117.502 67.3335 116.924 67.5728 116.322 67.5728H82.0528C81.4504 67.5728 80.8727 67.3335 80.4467 66.9076C80.0207 66.4816 79.7814 65.9039 79.7814 65.3015C79.7814 64.6991 80.0207 64.1214 80.4467 63.6954C80.8727 63.2694 81.4504 63.0301 82.0528 63.0301ZM82.0528 70.412H116.322C116.924 70.412 117.502 70.6513 117.928 71.0773C118.354 71.5033 118.593 72.081 118.593 72.6834C118.593 73.2858 118.354 73.8635 117.928 74.2895C117.502 74.7155 116.924 74.9548 116.322 74.9548H82.0528C81.4504 74.9548 80.8727 74.7155 80.4467 74.2895C80.0207 73.8635 79.7814 73.2858 79.7814 72.6834C79.7814 72.081 80.0207 71.5033 80.4467 71.0773C80.8727 70.6513 81.4504 70.412 82.0528 70.412ZM82.0528 78.0779H116.322C116.924 78.0779 117.502 78.3172 117.928 78.7431C118.354 79.1691 118.593 79.7468 118.593 80.3492C118.593 80.9516 118.354 81.5294 117.928 81.9553C117.502 82.3813 116.924 82.6206 116.322 82.6206H82.0528C81.4504 82.6206 80.8727 82.3813 80.4467 81.9553C80.0207 81.5294 79.7814 80.9516 79.7814 80.3492C79.7814 79.7468 80.0207 79.1691 80.4467 78.7431C80.8727 78.3172 81.4504 78.0779 82.0528 78.0779ZM93.7352 59.907H82.0528C81.4504 59.907 80.8727 59.6677 80.4467 59.2418C80.0207 58.8158 79.7814 58.2381 79.7814 57.6357C79.7814 57.0333 80.0207 56.4555 80.4467 56.0296C80.8727 55.6036 81.4504 55.3643 82.0528 55.3643H93.7352C94.3376 55.3643 94.9154 55.6036 95.3413 56.0296C95.7673 56.4555 96.0066 57.0333 96.0066 57.6357C96.0066 58.2381 95.7673 58.8158 95.3413 59.2418C94.9154 59.6677 94.3376 59.907 93.7352 59.907Z" fill="#2880FF"/>
</svg>
