<svg width="92" height="89" viewBox="0 0 92 89" fill="none" xmlns="http://www.w3.org/2000/svg">
<g clip-path="url(#clip0_54_776)">
<path d="M24.2136 71.8902H4.30325C3.23375 71.8902 2.87533 71.8902 2.87533 70.0181V65.5648C2.87533 65.1965 2.72388 64.8432 2.4543 64.5828C2.18471 64.3224 1.81908 64.176 1.43783 64.176C1.05658 64.176 0.690948 64.3224 0.421364 64.5828C0.151781 64.8432 0.000330254 65.1965 0.000330254 65.5648V70.0181C-0.108019 70.6096 -0.0759219 71.217 0.094199 71.7947C0.26432 72.3724 0.568022 72.9053 0.982392 73.353C1.39676 73.8008 1.91098 74.1518 2.48624 74.3795C3.06151 74.6073 3.6828 74.7058 4.30325 74.6677H24.2136C24.5948 74.6677 24.9605 74.5214 25.23 74.261C25.4996 74.0005 25.6511 73.6473 25.6511 73.279C25.6511 72.9106 25.4996 72.5574 25.23 72.297C24.9605 72.0365 24.5948 71.8902 24.2136 71.8902ZM1.43783 61.193C1.81908 61.193 2.18471 61.0466 2.4543 60.7862C2.72388 60.5257 2.87533 60.1725 2.87533 59.8042V13.897L46.3837 13.9692V37.1246C46.3837 37.493 46.5351 37.8462 46.8047 38.1066C47.0743 38.3671 47.4399 38.5134 47.8212 38.5134C48.2024 38.5134 48.568 38.3671 48.8376 38.1066C49.1072 37.8462 49.2587 37.493 49.2587 37.1246V13.9692C49.2658 13.2181 48.964 12.495 48.4194 11.9589C47.8749 11.4228 47.1323 11.1175 46.3549 11.1102H4.09433L10.6685 5.74025H52.4518C53.0618 5.74025 53.6468 5.97436 54.0782 6.39107C54.5095 6.80778 54.7518 7.37296 54.7518 7.96228V36.1451C54.7518 36.5134 54.9033 36.8666 55.1729 37.1271C55.4424 37.3875 55.8081 37.5339 56.1893 37.5339C56.5706 37.5339 56.9362 37.3875 57.2058 37.1271C57.4754 36.8666 57.6268 36.5134 57.6268 36.1451V7.96228C57.6268 6.63631 57.0816 5.36465 56.1111 4.42705C55.1406 3.48945 53.8243 2.96271 52.4518 2.96271H10.1433C9.80371 2.96251 9.47502 3.07864 9.21566 3.29046L0.676914 10.2788C0.475051 10.4788 0.317262 10.7162 0.21308 10.9768C0.0796327 11.1839 0.00616014 11.4218 0.000330254 11.6657V59.8097C0.00185127 60.1771 0.153973 60.5289 0.423392 60.7882C0.692811 61.0474 1.05758 61.193 1.43783 61.193Z" fill="#00FF94"/>
<path d="M52.0225 36.6284C52.4037 36.6284 52.7694 36.4821 53.0389 36.2216C53.3085 35.9612 53.46 35.6079 53.46 35.2396V11.1842C53.4585 10.0903 53.0085 9.04153 52.2086 8.26733C51.4086 7.49312 50.3238 7.05654 49.1916 7.05311L13.2617 6.9809C12.8805 6.9809 12.5148 7.12721 12.2453 7.38766C11.9757 7.6481 11.8242 8.00134 11.8242 8.36967C11.8242 8.73799 11.9757 9.09123 12.2453 9.35168C12.5148 9.61212 12.8805 9.75844 13.2617 9.75844L49.1935 9.83065C49.5646 9.83163 49.9202 9.97462 50.1824 10.2283C50.4446 10.482 50.5921 10.8257 50.5926 11.1842V35.2396C50.5926 35.6067 50.743 35.9588 51.011 36.219C51.2789 36.4792 51.6426 36.6264 52.0225 36.6284ZM71.8216 63.0669C71.4404 63.0669 71.0748 63.2132 70.8052 63.4736C70.5356 63.7341 70.3841 64.0873 70.3841 64.4556V76.0028C70.3868 76.2739 70.321 76.5415 70.1925 76.7824C69.3836 78.273 65.5503 83.1411 50.217 83.1411C34.8836 83.1411 31.0503 78.2785 30.2319 76.7861C30.1036 76.5457 30.0378 76.2788 30.0402 76.0084V65.0445C30.0402 64.6762 29.8888 64.3229 29.6192 64.0625C29.3496 63.802 28.984 63.6557 28.6027 63.6557C28.2215 63.6557 27.8558 63.802 27.5863 64.0625C27.3167 64.3229 27.1652 64.6762 27.1652 65.0445V76.0028C27.1612 76.7234 27.3374 77.4342 27.6789 78.0749C28.9707 80.4321 33.7336 85.9186 50.217 85.9186C66.7003 85.9186 71.4613 80.4376 72.7436 78.0823C73.0878 77.4418 73.2654 76.73 73.2611 76.0084V64.4556C73.2611 64.2731 73.2238 64.0924 73.1514 63.9238C73.0791 63.7551 72.973 63.602 72.8393 63.473C72.7057 63.344 72.547 63.2417 72.3723 63.1721C72.1977 63.1024 72.0106 63.0666 71.8216 63.0669Z" fill="#00FF94"/>
<path d="M91.0171 51.179L52.9866 38.906C52.6963 38.8115 52.3819 38.8115 52.0915 38.906L9.25212 52.1752C8.96607 52.2662 8.71675 52.4415 8.53927 52.6765C8.36178 52.9116 8.26507 53.1944 8.26274 53.4854C8.26041 53.7763 8.35259 54.0606 8.52629 54.2983C8.69999 54.5359 8.94647 54.7149 9.23103 54.8102L49.2894 67.8905C49.4376 67.9389 49.5929 67.9639 49.7494 67.9646C49.914 67.9643 50.0774 67.9368 50.2324 67.8831L79.636 57.7395V64.4056C78.6448 64.6948 77.7759 65.2837 77.1572 66.0858C76.5386 66.8878 76.2028 67.8606 76.1994 68.8608V71.6606C76.1994 72.9021 76.7099 74.0927 77.6185 74.9706C78.5272 75.8485 79.7596 76.3417 81.0447 76.3417C82.3298 76.3417 83.5622 75.8485 84.4709 74.9706C85.3796 74.0927 85.89 72.9021 85.89 71.6606V68.8571C85.8874 67.8659 85.5586 66.9012 84.9512 66.1023C84.3438 65.3035 83.4892 64.7119 82.511 64.4131V56.747L91.042 53.8047C91.3238 53.7076 91.5673 53.528 91.7384 53.2909C91.9095 53.0537 91.9997 52.771 91.9966 52.4819C91.9934 52.1929 91.897 51.912 91.7207 51.6785C91.5444 51.4449 91.2971 51.2703 91.0133 51.179H91.0171ZM83.0074 71.6606C83.0074 72.1654 82.7998 72.6496 82.4303 73.0066C82.0608 73.3636 81.5596 73.5641 81.037 73.5641C80.5145 73.5641 80.0133 73.3636 79.6438 73.0066C79.2743 72.6496 79.0667 72.1654 79.0667 71.6606V68.8571C79.0667 68.6071 79.1177 68.3596 79.2167 68.1287C79.3157 67.8977 79.4608 67.6879 79.6438 67.5111C79.8268 67.3344 80.044 67.1941 80.283 67.0985C80.5221 67.0028 80.7783 66.9536 81.037 66.9536C81.2958 66.9536 81.552 67.0028 81.791 67.0985C82.0301 67.1941 82.2473 67.3344 82.4303 67.5111C82.6132 67.6879 82.7584 67.8977 82.8574 68.1287C82.9564 68.3596 83.0074 68.6071 83.0074 68.8571V71.6606ZM80.8684 54.3658L50.3684 51.1864C50.1784 51.1622 49.9852 51.1749 49.8004 51.2239C49.6155 51.2729 49.4426 51.3571 49.2919 51.4716C49.1412 51.5861 49.0158 51.7285 48.9229 51.8906C48.83 52.0526 48.7717 52.2309 48.7512 52.4151C48.7308 52.5992 48.7486 52.7855 48.8038 52.9628C48.859 53.1402 48.9503 53.3051 49.0724 53.4479C49.1945 53.5907 49.345 53.7084 49.5149 53.7942C49.6848 53.8799 49.8707 53.932 50.0618 53.9473L74.6507 56.51L49.734 65.1093L14.2872 53.5325L52.5209 41.6816L86.1603 52.5381L80.8684 54.3658Z" fill="#00FF94"/>
</g>
<defs>
<clipPath id="clip0_54_776">
<rect width="92" height="88.8814" fill="white"/>
</clipPath>
</defs>
</svg>
