<svg width="60" height="60" viewBox="0 0 60 60" fill="none" xmlns="http://www.w3.org/2000/svg">
<path d="M29.9642 0C34.112 0 38.0095 0.786651 41.6567 2.35995C45.3039 3.93325 48.4863 6.07866 51.2038 8.79619C53.9213 11.5137 56.0667 14.6841 57.64 18.3075C59.2133 21.9309 60 25.8164 60 29.9642C60 34.112 59.2133 38.0095 57.64 41.6567C56.0667 45.3039 53.9213 48.4863 51.2038 51.2038C48.4863 53.9213 45.3039 56.0667 41.6567 57.64C38.0095 59.2133 34.112 60 29.9642 60C25.8164 60 21.9309 59.2133 18.3075 57.64C14.6841 56.0667 11.5137 53.9213 8.79619 51.2038C6.07866 48.4863 3.93325 45.3039 2.35995 41.6567C0.786651 38.0095 0 34.112 0 29.9642C0 25.8164 0.786651 21.9309 2.35995 18.3075C3.93325 14.6841 6.07866 11.5137 8.79619 8.79619C11.5137 6.07866 14.6841 3.93325 18.3075 2.35995C21.9309 0.786651 25.8164 0 29.9642 0ZM41.2634 13.087H34.8987C33.6591 13.087 32.5149 13.3015 31.466 13.7306C30.4172 14.1597 29.4994 14.7318 28.7128 15.447C27.9261 16.1621 27.3182 16.9726 26.8892 17.8784C26.4601 18.7843 26.2455 19.6901 26.2455 20.5959V24.3862H20.5959V31.8236H26.2455V46.8415H33.7545V31.8236H39.3325V24.3862H33.7545V22.4553C33.7545 21.8832 33.9809 21.4303 34.4338 21.0965C34.8868 20.7628 35.2801 20.5959 35.6138 20.5959H41.2634V13.087Z" fill="#2880FF"/>
</svg>
