<svg width="102" height="102" viewBox="0 0 102 102" fill="none" xmlns="http://www.w3.org/2000/svg">
<path d="M83.2896 29.7712L79.6877 26.2331V21.2287C79.6794 18.1005 78.4351 15.1023 76.2261 12.8872C74.0171 10.6722 71.0222 9.41992 67.894 9.40312H62.9215L59.3833 5.86499C57.1597 3.64213 54.1443 2.3934 51.0002 2.3934C47.8561 2.3934 44.8407 3.64213 42.6171 5.86499L39.079 9.40312H34.1065C30.9782 9.41992 27.9834 10.6722 25.7744 12.8872C23.5653 15.1023 22.3211 18.1005 22.3127 21.2287V26.2331L18.7108 29.7712C16.488 31.9948 15.2393 35.0102 15.2393 38.1544C15.2393 41.2985 16.488 44.3139 18.7108 46.5375L22.3127 50.0756V55.08C22.3127 58.2138 23.5532 61.2202 25.7631 63.4421C27.9731 65.6639 30.9727 66.9206 34.1065 66.9375H34.4571V95.625C34.4631 96.4391 34.7125 97.2327 35.1732 97.9039C35.634 98.5751 36.285 99.0931 37.0425 99.3913C37.8 99.6895 38.6294 99.7543 39.424 99.5773C40.2186 99.4003 40.9421 98.9896 41.5015 98.3981L49.2471 90.1106C49.4609 89.8503 49.728 89.6388 50.0304 89.4903C50.3328 89.3419 50.6635 89.2599 51.0002 89.25C51.3166 89.2526 51.6292 89.3189 51.9194 89.4449C52.2096 89.5708 52.4716 89.7539 52.6896 89.9831L60.5627 98.3025C61.1182 98.8779 61.8305 99.2774 62.6112 99.4513C63.3918 99.6252 64.2064 99.5658 64.9536 99.2805C65.7007 98.9952 66.3476 98.4966 66.8137 97.8467C67.2798 97.1968 67.5446 96.4242 67.5752 95.625V66.9375H67.9258C71.0596 66.9122 74.0559 65.6474 76.2599 63.4196C78.4638 61.1917 79.6963 58.1819 79.6877 55.0481V50.0756L83.2258 46.5375C85.4487 44.3139 86.6974 41.2985 86.6974 38.1544C86.6974 35.0102 85.4487 31.9948 83.2258 29.7712H83.2896ZM46.9202 87.8475L39.1746 96.135C39.0595 96.267 38.908 96.3623 38.7391 96.4088C38.5703 96.4554 38.3914 96.4512 38.2249 96.3968C38.0584 96.3425 37.9115 96.2403 37.8027 96.103C37.6938 95.9658 37.6278 95.7995 37.6127 95.625V66.9375H39.079L42.6171 70.4756C44.4704 72.2525 46.8555 73.3723 49.4065 73.6631V86.4131C48.4608 86.6515 47.5999 87.1481 46.9202 87.8475ZM64.3877 95.625C64.384 95.8007 64.3285 95.9714 64.2282 96.1156C64.1279 96.2599 63.9873 96.3714 63.8239 96.4361C63.6605 96.5007 63.4817 96.5157 63.3098 96.4792C63.1379 96.4426 62.9807 96.3562 62.8577 96.2306L55.1121 87.9431C54.4324 87.2437 53.5716 86.7471 52.6258 86.5087V73.7587C55.1768 73.4679 57.5619 72.3482 59.4152 70.5712L62.9215 66.9375H64.3877V95.625ZM81.0583 44.37L77.074 48.3544C76.7737 48.6486 76.6018 49.0496 76.5958 49.47V55.1119C76.5917 56.2504 76.3633 57.377 75.9237 58.4273C75.4841 59.4776 74.842 60.431 74.0339 61.2332C73.2259 62.0353 72.2678 62.6704 71.2143 63.1022C70.1608 63.5341 69.0325 63.7542 67.894 63.75H62.2521C61.8317 63.756 61.4307 63.9278 61.1365 64.2281L57.1521 68.2125C55.527 69.8319 53.3263 70.7413 51.0321 70.7413C48.7379 70.7413 46.5372 69.8319 44.9121 68.2125L40.9277 64.2281C40.6335 63.9278 40.2325 63.756 39.8121 63.75H34.1065C31.8126 63.7331 29.6189 62.8079 28.0058 61.1769C26.3927 59.5459 25.4917 57.3421 25.5002 55.0481V49.4062C25.4942 48.9859 25.3224 48.5849 25.0221 48.2906L20.974 44.2744C19.3545 42.6493 18.4452 40.4486 18.4452 38.1544C18.4452 35.8601 19.3545 33.6594 20.974 32.0344L24.9583 28.0181C25.1186 27.8778 25.2492 27.7068 25.3423 27.5152C25.4353 27.3236 25.489 27.1152 25.5002 26.9025V21.2287C25.5086 18.9458 26.4169 16.7584 28.0282 15.1411C29.6395 13.5239 31.8236 12.6074 34.1065 12.5906H39.7802C40.2006 12.5846 40.6016 12.4128 40.8958 12.1125L44.8802 8.12811C46.5053 6.50866 48.706 5.59933 51.0002 5.59933C53.2944 5.59933 55.4952 6.50866 57.1202 8.12811L61.1365 12.1125C61.4307 12.4128 61.8317 12.5846 62.2521 12.5906H67.894C70.1768 12.6074 72.3609 13.5239 73.9722 15.1411C75.5835 16.7584 76.4919 18.9458 76.5002 21.2287V26.9025C76.5062 27.3229 76.6781 27.7239 76.9783 28.0181L81.0265 31.875C82.6459 33.5001 83.5553 35.7008 83.5553 37.995C83.5553 40.2892 82.6459 42.4899 81.0265 44.115L81.0583 44.37Z" fill="#00FF94"/>
<path d="M69.2006 30.6V27.795C69.2006 25.7069 68.3712 23.7044 66.8947 22.2279C65.4182 20.7514 63.4156 19.9219 61.3275 19.9219H58.5225L56.5463 17.9456C55.0702 16.4722 53.0697 15.6446 50.9841 15.6446C48.8984 15.6446 46.898 16.4722 45.4219 17.9456L43.4456 19.9219H40.6406C38.5526 19.9219 36.55 20.7514 35.0735 22.2279C33.597 23.7044 32.7675 25.7069 32.7675 27.795V30.6L30.7913 32.5763C29.3178 34.0523 28.4902 36.0528 28.4902 38.1384C28.4902 40.2241 29.3178 42.2245 30.7913 43.7006L32.7675 45.6769V48.4819C32.7675 50.57 33.597 52.5725 35.0735 54.049C36.55 55.5255 38.5526 56.355 40.6406 56.355H43.4456L45.4219 58.3313C46.898 59.8047 48.8984 60.6323 50.9841 60.6323C53.0697 60.6323 55.0702 59.8047 56.5463 58.3313L58.5225 56.355H61.3275C63.4156 56.355 65.4182 55.5255 66.8947 54.049C68.3712 52.5725 69.2006 50.57 69.2006 48.4819V45.6769L71.1769 43.7006C72.6504 42.2245 73.4779 40.2241 73.4779 38.1384C73.4779 36.0528 72.6504 34.0523 71.1769 32.5763L69.2006 30.6ZM68.9456 41.4375L66.4913 43.8919C66.191 44.1861 66.0191 44.5871 66.0131 45.0075V48.4819C66.0131 49.7246 65.5195 50.9164 64.6408 51.7951C63.762 52.6738 62.5702 53.1675 61.3275 53.1675H57.885C57.4646 53.1735 57.0636 53.3453 56.7694 53.6456L54.1875 56.1C53.7524 56.5356 53.2356 56.8812 52.6668 57.117C52.098 57.3528 51.4883 57.4742 50.8725 57.4742C50.2568 57.4742 49.6471 57.3528 49.0783 57.117C48.5094 56.8812 47.9927 56.5356 47.5575 56.1L45.1031 53.6456C44.8089 53.3453 44.4079 53.1735 43.9875 53.1675H40.6406C39.3979 53.1675 38.2061 52.6738 37.3274 51.7951C36.4487 50.9164 35.955 49.7246 35.955 48.4819V45.0394C35.949 44.619 35.7772 44.218 35.4769 43.9238L33.0544 41.4375C32.6188 41.0023 32.2732 40.4856 32.0374 39.9168C31.8016 39.348 31.6802 38.7383 31.6802 38.1225C31.6802 37.5068 31.8016 36.8971 32.0374 36.3282C32.2732 35.7594 32.6188 35.2427 33.0544 34.8075L35.5088 32.3531C35.8091 32.0589 35.9809 31.6579 35.9869 31.2375V27.795C35.9869 26.5523 36.4806 25.3605 37.3593 24.4818C38.238 23.603 39.4298 23.1094 40.6725 23.1094H44.1469C44.5673 23.1034 44.9683 22.9315 45.2625 22.6313L47.8125 20.2088C48.2477 19.7731 48.7644 19.4275 49.3333 19.1918C49.9021 18.956 50.5118 18.8346 51.1275 18.8346C51.7433 18.8346 52.353 18.956 52.9218 19.1918C53.4906 19.4275 54.0074 19.7731 54.4425 20.2088L56.8969 22.6631C57.1912 22.9634 57.5921 23.1353 58.0125 23.1413H61.4869C62.7296 23.1413 63.9214 23.6349 64.8001 24.5136C65.6789 25.3924 66.1725 26.5842 66.1725 27.8269V31.2694C66.1785 31.6898 66.3504 32.0907 66.6506 32.385L69.105 34.8394C69.9542 35.7378 70.414 36.9354 70.3842 38.1713C70.3543 39.4071 69.8372 40.5812 68.9456 41.4375Z" fill="#00FF94"/>
<path d="M51.0004 27.1575C48.8295 27.1576 46.7072 27.8002 44.9009 29.0044C43.0946 30.2085 41.6851 31.9204 40.8501 33.9243C40.015 35.9281 39.7917 38.1343 40.2083 40.2648C40.6249 42.3954 41.6628 44.3549 43.1912 45.8966C44.7196 47.4383 46.6701 48.4931 48.797 48.9282C50.9238 49.3632 53.1318 49.159 55.1429 48.3414C57.1539 47.5237 58.8779 46.1291 60.0976 44.3333C61.3174 42.5375 61.9784 40.4208 61.9972 38.25C62.0099 36.7978 61.7348 35.3576 61.1878 34.0123C60.6408 32.667 59.8328 31.4434 58.8103 30.4121C57.7879 29.3808 56.5714 28.5623 55.2309 28.0036C53.8904 27.445 52.4526 27.1574 51.0004 27.1575ZM51.0004 45.9638C49.4518 45.9636 47.9382 45.5031 46.6519 44.6407C45.3657 43.7783 44.3649 42.5529 43.7768 41.1204C43.1886 39.6878 43.0396 38.1128 43.3488 36.5953C43.6579 35.0779 44.4113 33.6867 45.513 32.5984C46.6148 31.5101 48.0152 30.774 49.5363 30.4836C51.0574 30.1931 52.6305 30.3615 54.0557 30.9673C55.4809 31.573 56.6939 32.5888 57.5404 33.8856C58.3869 35.1824 58.8287 36.7015 58.8097 38.25C58.7846 40.3046 57.9507 42.2664 56.4889 43.7104C55.0271 45.1543 53.0551 45.9639 51.0004 45.9638Z" fill="#00FF94"/>
</svg>
