<svg width="115" height="115" viewBox="0 0 115 115" fill="none" xmlns="http://www.w3.org/2000/svg">
<path fill-rule="evenodd" clip-rule="evenodd" d="M98.7023 55.757C99.5109 52.0375 102.799 49.2523 106.752 49.2523C111.298 49.2523 115 52.9359 115 57.482C115 62.0281 111.298 65.7297 106.752 65.7297C102.799 65.7297 99.5109 62.9266 98.7023 59.225H92.0719C91.6586 67.4727 88.3703 74.9477 83.1773 80.6977L87.8852 85.4055C89.4672 84.3908 91.3481 83.9464 93.217 84.1457C95.0859 84.345 96.8308 85.1761 98.1633 86.5016C99.708 88.0489 100.576 90.146 100.576 92.3324C100.576 94.5189 99.708 96.6159 98.1633 98.1633C96.5641 99.7625 94.4437 100.571 92.3414 100.571C90.2391 100.571 88.1188 99.7625 86.5195 98.1633C83.7344 95.3781 83.375 91.0836 85.4234 87.8852L80.7156 83.1773C74.9656 88.3703 67.4906 91.6586 59.243 92.0719V98.7023C62.9625 99.5109 65.7477 102.799 65.7477 106.752C65.7477 111.298 62.0461 115 57.5 115C52.9539 115 49.2523 111.298 49.2523 106.752C49.2523 102.799 52.0555 99.5109 55.757 98.7023V92.0719C47.5094 91.6586 40.0344 88.3703 34.2844 83.1773L29.5766 87.8852C30.4211 89.1969 30.8883 90.7422 30.8883 92.3414C30.8883 94.5336 30.0438 96.6 28.4805 98.1633C26.9352 99.7086 24.8687 100.571 22.6586 100.571C20.4664 100.571 18.4 99.7266 16.8367 98.1633C15.2914 96.618 14.4289 94.5336 14.4289 92.3414C14.4289 90.1492 15.2734 88.0828 16.8367 86.5195C18.1675 85.1911 19.9127 84.358 21.7824 84.1586C23.6522 83.9592 25.5339 84.4055 27.1148 85.4234L31.8227 80.7156C26.6297 74.9656 23.3414 67.4906 22.9281 59.243H16.2977C15.4891 62.9625 12.2008 65.7477 8.24766 65.7477C3.70156 65.7477 0 62.0461 0 57.5C0 52.9539 3.70156 49.2523 8.24766 49.2523C12.2008 49.2523 15.4891 52.0555 16.2977 55.757H22.9281C23.3414 47.5094 26.6297 40.0344 31.8227 34.2844L27.1148 29.5766C25.8031 30.4211 24.2578 30.8883 22.6586 30.8883C20.4664 30.8883 18.4 30.0438 16.8367 28.4805C15.2914 26.9352 14.4289 24.8687 14.4289 22.6586C14.4289 20.4664 15.2734 18.4 16.8367 16.8367C18.382 15.2914 20.4664 14.4289 22.6586 14.4289C23.7401 14.4249 24.8116 14.6356 25.811 15.049C26.8104 15.4623 27.7178 16.07 28.4805 16.8367C29.8089 18.1675 30.642 19.9127 30.8414 21.7824C31.0408 23.6522 30.5945 25.5339 29.5766 27.1148L34.2844 31.8227C40.0344 26.6297 47.5094 23.3414 55.757 22.9281V16.2977C52.0375 15.4891 49.2523 12.2008 49.2523 8.24766C49.2523 3.70156 52.9539 0 57.5 0C58.5822 0.000234145 59.6537 0.213857 60.6532 0.628644C61.6528 1.04343 62.5607 1.65124 63.3251 2.4173C64.0895 3.18335 64.6953 4.09261 65.1079 5.09305C65.5205 6.09349 65.7318 7.16547 65.7297 8.24766C65.7297 12.2008 62.9266 15.4891 59.225 16.2977V22.9102C67.4727 23.3234 74.9477 26.6117 80.6977 31.8047L85.4055 27.0969C84.3908 25.5148 83.9464 23.6339 84.1457 21.765C84.345 19.8961 85.1761 18.1512 86.5016 16.8187C88.0489 15.274 90.146 14.4064 92.3324 14.4064C94.5189 14.4064 96.6159 15.274 98.1633 16.8187C99.708 18.3661 100.576 20.4632 100.576 22.6496C100.576 24.836 99.708 26.9331 98.1633 28.4805C96.8329 29.8095 95.0876 30.643 93.2177 30.8424C91.3478 31.0418 89.4659 30.5951 87.8852 29.5766L83.1773 34.2844C88.3703 40.0344 91.6586 47.5094 92.0719 55.757H98.7023ZM92.3234 17.9148C91.1016 17.9148 89.8977 18.3641 88.9633 19.2984C87.1125 21.1672 87.1125 24.1859 88.9633 26.0187C89.8557 26.9075 91.0639 27.4066 92.3234 27.4066C93.583 27.4066 94.7912 26.9075 95.6836 26.0187C96.5724 25.1263 97.0714 23.9181 97.0714 22.6586C97.0714 21.3991 96.5724 20.1909 95.6836 19.2984C94.7672 18.382 93.5453 17.9148 92.3234 17.9148ZM19.3164 26.0367C21.1133 27.8336 24.2398 27.8336 26.0367 26.0367C26.9352 25.1383 27.4203 23.9344 27.4383 22.6766C27.4383 21.4008 26.9352 20.2148 26.0367 19.3164C25.1383 18.418 23.9523 17.9148 22.6766 17.9148C21.4008 17.9148 20.2148 18.418 19.3164 19.3164C18.418 20.2148 17.9148 21.4008 17.9148 22.6766C17.9148 23.9523 18.418 25.1383 19.3164 26.0367ZM3.48594 57.5C3.48594 60.1234 5.62422 62.2617 8.24766 62.2617C9.50894 62.2565 10.7171 61.7532 11.609 60.8613C12.5008 59.9694 13.0042 58.7613 13.0094 57.5C13.0094 54.8766 10.8711 52.7383 8.24766 52.7383C5.62422 52.7383 3.48594 54.8766 3.48594 57.5ZM19.3164 95.7016C21.1133 97.4984 24.2398 97.4984 26.0367 95.7016C26.9352 94.8031 27.4203 93.5992 27.4383 92.3414C27.4383 91.0656 26.9352 89.8797 26.0367 88.9813C25.1383 88.0828 23.9523 87.5797 22.6766 87.5797C21.4008 87.5797 20.2148 88.0828 19.3164 88.9813C18.418 89.8797 17.9148 91.0656 17.9148 92.3414C17.9148 93.6172 18.418 94.8031 19.3164 95.7016ZM92.3234 87.5755C91.0639 87.5755 89.8557 88.0745 88.9633 88.9633C88.0745 89.8557 87.5755 91.0639 87.5755 92.3234C87.5755 93.583 88.0745 94.7912 88.9633 95.6836C89.8557 96.5724 91.0639 97.0714 92.3234 97.0714C93.583 97.0714 94.7912 96.5724 95.6836 95.6836C96.5724 94.7912 97.0714 93.583 97.0714 92.3234C97.0714 91.0639 96.5724 89.8557 95.6836 88.9633C94.7912 88.0745 93.583 87.5755 92.3234 87.5755ZM57.5 3.48594C54.8766 3.48594 52.7383 5.62422 52.7383 8.24766C52.7435 9.50894 53.2468 10.7171 54.1387 11.609C55.0306 12.5008 56.2387 13.0042 57.5 13.0094C60.1234 13.0094 62.2617 10.8711 62.2617 8.24766C62.2617 5.62422 60.1234 3.48594 57.5 3.48594ZM57.5 111.514C60.1234 111.514 62.2617 109.376 62.2617 106.752C62.2617 104.129 60.1234 102.009 57.5 101.991C54.8766 101.991 52.7383 104.129 52.7383 106.752C52.7383 109.376 54.8766 111.514 57.5 111.514ZM26.3242 57.5C26.3242 74.6961 40.3039 88.6758 57.5 88.6758C74.6961 88.6758 88.6758 74.6961 88.6758 57.5C88.6758 40.3039 74.6961 26.3242 57.5 26.3242C40.3039 26.3242 26.3242 40.3039 26.3242 57.5ZM101.991 57.5C101.991 60.1234 104.129 62.2617 106.752 62.2617C109.376 62.2617 111.514 60.1234 111.514 57.5C111.514 54.8766 109.376 52.7383 106.752 52.7383C104.129 52.7383 101.991 54.8766 101.991 57.5ZM67.185 49.8275C67.185 51.6783 66.6639 53.3853 65.7655 54.8588C68.7733 56.298 71.3106 58.5616 73.0824 61.3863C74.8542 64.211 75.7876 67.4806 75.7741 70.815C75.776 71.3441 75.6731 71.8684 75.4715 72.3575C75.2699 72.8467 74.9735 73.2912 74.5994 73.6653C74.2253 74.0395 73.7808 74.3359 73.2916 74.5375C72.8024 74.7391 72.2782 74.8419 71.7491 74.84H43.2147C41.0045 74.84 39.1897 73.0431 39.1897 70.815C39.1794 68.4844 39.6333 66.175 40.5248 64.0217C41.4164 61.8683 42.7279 59.914 44.3827 58.2728C45.7842 56.8713 47.4373 55.7213 49.2342 54.8588C48.3358 53.3853 47.8147 51.6783 47.8147 49.8275C47.8147 44.4908 52.1631 40.1423 57.4998 40.1423C62.8366 40.1423 67.185 44.4908 67.185 49.8275ZM63.6991 49.8275C63.6991 46.4134 60.9139 43.6283 57.4998 43.6283C54.0858 43.6283 51.3006 46.4134 51.3006 49.8275C51.3006 53.2416 54.0858 56.0267 57.4998 56.0267C60.9139 56.0267 63.6991 53.2416 63.6991 49.8275ZM71.9808 71.3126C72.0486 71.2849 72.1103 71.244 72.1623 71.1923C72.2522 71.1025 72.3061 70.9767 72.3061 70.815C72.3106 67.9535 71.4475 65.1578 69.8307 62.7968C68.2139 60.4358 65.9194 58.6204 63.2498 57.59C61.6327 58.7759 59.6561 59.4947 57.4998 59.4947C55.3436 59.4947 53.3491 58.7759 51.7319 57.572C49.917 58.2908 48.2459 59.3509 46.8623 60.7345C44.185 63.4298 42.6936 67.0056 42.6936 70.815C42.6936 71.1205 42.9272 71.3541 43.2327 71.3541H71.767C71.8403 71.3544 71.913 71.3403 71.9808 71.3126Z" fill="#F5F5F5"/>
</svg>
