<svg width="60" height="60" viewBox="0 0 60 60" fill="none" xmlns="http://www.w3.org/2000/svg">
<path d="M29.9642 0C34.1219 0 38.0167 0.788531 41.6487 2.36559C45.2808 3.94265 48.4588 6.08124 51.1828 8.78136C53.9068 11.4815 56.0574 14.6476 57.6344 18.2796C59.2115 21.9116 60 25.8065 60 29.9642C60 34.1219 59.2115 38.0167 57.6344 41.6487C56.0574 45.2808 53.9068 48.4588 51.1828 51.1828C48.4588 53.9068 45.2808 56.0574 41.6487 57.6344C38.0167 59.2115 34.1219 60 29.9642 60C25.8065 60 21.9116 59.2115 18.2796 57.6344C14.6476 56.0574 11.4815 53.9068 8.78136 51.1828C6.08124 48.4588 3.94265 45.2808 2.36559 41.6487C0.788531 38.0167 0 34.1219 0 29.9642C0 25.8065 0.788531 21.9116 2.36559 18.2796C3.94265 14.6476 6.08124 11.4815 8.78136 8.78136C11.4815 6.08124 14.6476 3.94265 18.2796 2.36559C21.9116 0.788531 25.8065 0 29.9642 0ZM20.6452 22.509H13.1183V46.8817H20.6452V22.509ZM16.8459 20.5735C17.8973 20.5735 18.7933 20.2151 19.5341 19.4982C20.2748 18.7814 20.6452 17.8973 20.6452 16.8459C20.6452 15.7945 20.2748 14.9104 19.5341 14.1935C18.7933 13.4767 17.8973 13.1183 16.8459 13.1183C15.7945 13.1183 14.9104 13.4767 14.1935 14.1935C13.4767 14.9104 13.1183 15.7945 13.1183 16.8459C13.1183 17.8973 13.4767 18.7814 14.1935 19.4982C14.9104 20.2151 15.7945 20.5735 16.8459 20.5735ZM46.8817 32.7599C46.8817 31.0394 46.4038 29.3548 45.448 27.7061C44.4922 26.0573 43.2497 24.8029 41.7204 23.9427C40.3345 23.178 38.7216 22.7718 36.8817 22.724C35.0418 22.6762 33.3572 22.9869 31.828 23.6559V22.509H24.3728V46.8817H31.828V31.9713L34.9821 30.466C35.3644 30.2748 35.8781 30.1792 36.5233 30.1792C37.1685 30.1792 37.6822 30.2987 38.0645 30.5376C38.3513 30.681 38.638 30.9916 38.9247 31.4695C39.2115 31.9474 39.3548 32.3775 39.3548 32.7599V46.8817H46.8817V32.7599Z" fill="#2880FF"/>
</svg>
