<svg width="56" height="56" viewBox="0 0 56 56" fill="none" xmlns="http://www.w3.org/2000/svg">
<path d="M12.7401 43.1432V36.3299C12.7401 34.0665 14.5134 32.0365 17.0334 32.0365C19.2968 32.0365 21.3268 33.8099 21.3268 36.3299V42.8865C21.3268 47.4365 17.5468 51.2165 12.9968 51.2165C8.44678 51.2165 4.66678 47.4132 4.66678 42.8865V28.5132C4.41011 15.3999 14.7701 4.7832 27.8834 4.7832C40.9968 4.7832 51.3334 15.3999 51.3334 28.2565V42.6299C51.3334 47.1799 47.5534 50.9599 43.0034 50.9599C38.4534 50.9599 34.6734 47.1799 34.6734 42.6299V36.0732C34.6734 33.8099 36.4468 31.7799 38.9668 31.7799C41.2301 31.7799 43.2601 33.5532 43.2601 36.0732V43.1432" stroke="url(#paint0_linear_8_185)" stroke-width="1.5" stroke-linecap="round" stroke-linejoin="round"/>
<defs>
<linearGradient id="paint0_linear_8_185" x1="27.9978" y1="4.7832" x2="27.9978" y2="51.2165" gradientUnits="userSpaceOnUse">
<stop stop-color="#00FF94"/>
<stop offset="1" stop-color="#2880FF"/>
</linearGradient>
</defs>
</svg>
