<svg width="388" height="55" viewBox="0 0 388 55" fill="none" xmlns="http://www.w3.org/2000/svg">
<g clip-path="url(#clip0_202_2)">
<path d="M66.8656 -8.98397e-06H33.6393C32.5747 -8.68048e-05 31.553 0.42059 30.7957 1.17082C30.0384 1.92104 29.6065 2.94036 29.5937 4.00776C29.496 12.2237 29.5093 20.3595 29.5937 28.6199C29.4871 31.9998 29.9845 35.3975 29.3272 38.6973C27.6086 45.8222 18.3273 49.2065 12.2966 44.3304C6.03951 39.343 7.46502 28.7135 15.272 25.957C17.5324 25.289 19.8683 25.2757 22.1953 25.3247C22.7334 25.3359 23.2683 25.2393 23.7687 25.0404C24.2691 24.8415 24.7248 24.5444 25.1091 24.1665C25.4934 23.7887 25.7985 23.3376 26.0066 22.8398C26.2147 22.3421 26.3215 21.8076 26.3208 21.2679C26.3211 20.2102 25.9096 19.1943 25.1738 18.4365C24.438 17.6787 23.4361 17.239 22.3818 17.2111C18.9668 17.1221 15.4896 17.2111 12.2789 18.3645C9.52086 19.4109 7.04603 21.0914 5.0532 23.2709C3.06038 25.4504 1.60511 28.0682 0.804308 30.9141C0.00350545 33.7599 -0.120508 36.7544 0.442232 39.6571C1.00497 42.5597 2.23877 45.2895 4.04453 47.6272C5.85028 49.9649 8.17764 51.8454 10.8396 53.1174C13.5016 54.3895 16.4241 55.0178 19.3722 54.9519C22.3203 54.8859 25.2118 54.1275 27.8146 52.7376C30.4174 51.3477 32.6587 49.365 34.3587 46.9488C38.8883 40.385 37.5117 36.11 37.6316 12.3306C37.6363 11.2577 38.0646 10.2305 38.8228 9.47352C39.581 8.71658 40.6073 8.29162 41.6772 8.29163H66.8789C67.4222 8.29163 67.9602 8.18424 68.4621 7.97562C68.964 7.76699 69.42 7.46122 69.8039 7.07577C70.1879 6.69032 70.4924 6.23277 70.6999 5.72926C70.9074 5.22575 71.0139 4.68617 71.0133 4.14136C71.0127 3.59617 70.9049 3.05645 70.696 2.5531C70.4872 2.04974 70.1814 1.59265 69.7961 1.20797C69.4108 0.823289 68.9537 0.518588 68.4508 0.311306C67.9479 0.104024 67.4093 -0.00176608 66.8656 -8.98397e-06Z" fill="url(#paint0_linear_202_2)"/>
<path d="M56.1366 17.367H42.37V25.3825H56.1366C57.1966 25.3825 58.2132 24.9603 58.9627 24.2087C59.7122 23.4571 60.1333 22.4377 60.1333 21.3748C60.1333 20.3118 59.7122 19.2925 58.9627 18.5409C58.2132 17.7893 57.1966 17.367 56.1366 17.367Z" fill="url(#paint1_linear_202_2)"/>
</g>
<path d="M101.182 41H93.2955V17.7273H101.341C103.652 17.7273 105.636 18.1932 107.295 19.125C108.962 20.0492 110.242 21.3788 111.136 23.1136C112.03 24.8485 112.477 26.9242 112.477 29.3409C112.477 31.7652 112.027 33.8485 111.125 35.5909C110.231 37.3333 108.939 38.6705 107.25 39.6023C105.568 40.5341 103.545 41 101.182 41ZM97.5114 37.3523H100.977C102.598 37.3523 103.951 37.0568 105.034 36.4659C106.117 35.8674 106.932 34.9773 107.477 33.7955C108.023 32.6061 108.295 31.1212 108.295 29.3409C108.295 27.5606 108.023 26.0833 107.477 24.9091C106.932 23.7273 106.125 22.8447 105.057 22.2614C103.996 21.6705 102.678 21.375 101.102 21.375H97.5114V37.3523ZM123.915 41.3409C122.21 41.3409 120.733 40.9659 119.483 40.2159C118.233 39.4659 117.263 38.4167 116.574 37.0682C115.892 35.7197 115.551 34.1439 115.551 32.3409C115.551 30.5379 115.892 28.9583 116.574 27.6023C117.263 26.2462 118.233 25.1932 119.483 24.4432C120.733 23.6932 122.21 23.3182 123.915 23.3182C125.619 23.3182 127.097 23.6932 128.347 24.4432C129.597 25.1932 130.563 26.2462 131.244 27.6023C131.934 28.9583 132.278 30.5379 132.278 32.3409C132.278 34.1439 131.934 35.7197 131.244 37.0682C130.563 38.4167 129.597 39.4659 128.347 40.2159C127.097 40.9659 125.619 41.3409 123.915 41.3409ZM123.938 38.0455C124.862 38.0455 125.634 37.7917 126.256 37.2841C126.877 36.7689 127.339 36.0795 127.642 35.2159C127.953 34.3523 128.108 33.3902 128.108 32.3295C128.108 31.2614 127.953 30.2955 127.642 29.4318C127.339 28.5606 126.877 27.8674 126.256 27.3523C125.634 26.8371 124.862 26.5795 123.938 26.5795C122.991 26.5795 122.203 26.8371 121.574 27.3523C120.953 27.8674 120.487 28.5606 120.176 29.4318C119.873 30.2955 119.722 31.2614 119.722 32.3295C119.722 33.3902 119.873 34.3523 120.176 35.2159C120.487 36.0795 120.953 36.7689 121.574 37.2841C122.203 37.7917 122.991 38.0455 123.938 38.0455ZM139.884 17.7273V41H135.77V17.7273H139.884ZM148.227 17.7273V41H144.114V17.7273H148.227ZM157.48 41.3523C156.374 41.3523 155.378 41.1553 154.491 40.7614C153.613 40.3598 152.916 39.7689 152.401 38.9886C151.893 38.2083 151.639 37.2462 151.639 36.1023C151.639 35.1174 151.821 34.303 152.185 33.6591C152.548 33.0152 153.045 32.5 153.673 32.1136C154.302 31.7273 155.01 31.4356 155.798 31.2386C156.594 31.0341 157.416 30.8864 158.264 30.7955C159.287 30.6894 160.116 30.5947 160.753 30.5114C161.389 30.4205 161.851 30.2841 162.139 30.1023C162.435 29.9129 162.582 29.6212 162.582 29.2273V29.1591C162.582 28.303 162.329 27.6402 161.821 27.1705C161.313 26.7008 160.582 26.4659 159.628 26.4659C158.62 26.4659 157.821 26.6856 157.23 27.125C156.647 27.5644 156.253 28.0833 156.048 28.6818L152.207 28.1364C152.51 27.0758 153.01 26.1894 153.707 25.4773C154.404 24.7576 155.257 24.2197 156.264 23.8636C157.272 23.5 158.385 23.3182 159.605 23.3182C160.446 23.3182 161.283 23.4167 162.116 23.6136C162.95 23.8106 163.711 24.1364 164.401 24.5909C165.09 25.0379 165.643 25.6477 166.06 26.4205C166.484 27.1932 166.696 28.1591 166.696 29.3182V41H162.741V38.6023H162.605C162.355 39.0871 162.003 39.5417 161.548 39.9659C161.101 40.3826 160.537 40.7197 159.855 40.9773C159.181 41.2273 158.389 41.3523 157.48 41.3523ZM158.548 38.3295C159.374 38.3295 160.09 38.1667 160.696 37.8409C161.302 37.5076 161.768 37.0682 162.094 36.5227C162.427 35.9773 162.594 35.3826 162.594 34.7386V32.6818C162.465 32.7879 162.245 32.8864 161.935 32.9773C161.632 33.0682 161.291 33.1477 160.912 33.2159C160.533 33.2841 160.158 33.3447 159.787 33.3977C159.416 33.4508 159.094 33.4962 158.821 33.5341C158.207 33.6174 157.658 33.7538 157.173 33.9432C156.688 34.1326 156.306 34.3977 156.026 34.7386C155.745 35.072 155.605 35.5038 155.605 36.0341C155.605 36.7917 155.882 37.3636 156.435 37.75C156.988 38.1364 157.692 38.3295 158.548 38.3295ZM170.832 41V23.5455H174.821V26.4545H175.003C175.321 25.447 175.866 24.6705 176.639 24.125C177.42 23.572 178.31 23.2955 179.31 23.2955C179.537 23.2955 179.791 23.3068 180.071 23.3295C180.359 23.3447 180.598 23.3712 180.787 23.4091V27.1932C180.613 27.1326 180.336 27.0795 179.957 27.0341C179.586 26.9811 179.226 26.9545 178.878 26.9545C178.128 26.9545 177.454 27.1174 176.855 27.4432C176.264 27.7614 175.798 28.2045 175.457 28.7727C175.116 29.3409 174.946 29.9962 174.946 30.7386V41H170.832ZM191.639 41V17.7273H206.548V21.2614H195.855V27.5795H205.526V31.1136H195.855V41H191.639ZM215.074 41.3523C213.968 41.3523 212.972 41.1553 212.085 40.7614C211.206 40.3598 210.509 39.7689 209.994 38.9886C209.487 38.2083 209.233 37.2462 209.233 36.1023C209.233 35.1174 209.415 34.303 209.778 33.6591C210.142 33.0152 210.638 32.5 211.267 32.1136C211.896 31.7273 212.604 31.4356 213.392 31.2386C214.188 31.0341 215.009 30.8864 215.858 30.7955C216.881 30.6894 217.71 30.5947 218.347 30.5114C218.983 30.4205 219.445 30.2841 219.733 30.1023C220.028 29.9129 220.176 29.6212 220.176 29.2273V29.1591C220.176 28.303 219.922 27.6402 219.415 27.1705C218.907 26.7008 218.176 26.4659 217.222 26.4659C216.214 26.4659 215.415 26.6856 214.824 27.125C214.241 27.5644 213.847 28.0833 213.642 28.6818L209.801 28.1364C210.104 27.0758 210.604 26.1894 211.301 25.4773C211.998 24.7576 212.85 24.2197 213.858 23.8636C214.866 23.5 215.979 23.3182 217.199 23.3182C218.04 23.3182 218.877 23.4167 219.71 23.6136C220.544 23.8106 221.305 24.1364 221.994 24.5909C222.684 25.0379 223.237 25.6477 223.653 26.4205C224.078 27.1932 224.29 28.1591 224.29 29.3182V41H220.335V38.6023H220.199C219.949 39.0871 219.597 39.5417 219.142 39.9659C218.695 40.3826 218.131 40.7197 217.449 40.9773C216.775 41.2273 215.983 41.3523 215.074 41.3523ZM216.142 38.3295C216.968 38.3295 217.684 38.1667 218.29 37.8409C218.896 37.5076 219.362 37.0682 219.688 36.5227C220.021 35.9773 220.188 35.3826 220.188 34.7386V32.6818C220.059 32.7879 219.839 32.8864 219.528 32.9773C219.225 33.0682 218.884 33.1477 218.506 33.2159C218.127 33.2841 217.752 33.3447 217.381 33.3977C217.009 33.4508 216.688 33.4962 216.415 33.5341C215.801 33.6174 215.252 33.7538 214.767 33.9432C214.282 34.1326 213.9 34.3977 213.619 34.7386C213.339 35.072 213.199 35.5038 213.199 36.0341C213.199 36.7917 213.475 37.3636 214.028 37.75C214.581 38.1364 215.286 38.3295 216.142 38.3295ZM236.04 41.3409C234.297 41.3409 232.801 40.9583 231.551 40.1932C230.309 39.428 229.35 38.3712 228.676 37.0227C228.009 35.6667 227.676 34.1061 227.676 32.3409C227.676 30.5682 228.017 29.0038 228.699 27.6477C229.381 26.2841 230.343 25.2235 231.585 24.4659C232.835 23.7008 234.313 23.3182 236.017 23.3182C237.434 23.3182 238.688 23.5795 239.778 24.1023C240.877 24.6174 241.752 25.3485 242.403 26.2955C243.055 27.2348 243.426 28.3333 243.517 29.5909H239.585C239.426 28.75 239.047 28.0492 238.449 27.4886C237.858 26.9205 237.066 26.6364 236.074 26.6364C235.233 26.6364 234.494 26.8636 233.858 27.3182C233.222 27.7652 232.725 28.4091 232.369 29.25C232.021 30.0909 231.847 31.0985 231.847 32.2727C231.847 33.4621 232.021 34.4848 232.369 35.3409C232.718 36.1894 233.206 36.8447 233.835 37.3068C234.472 37.7614 235.218 37.9886 236.074 37.9886C236.68 37.9886 237.222 37.875 237.699 37.6477C238.184 37.4129 238.589 37.0758 238.915 36.6364C239.241 36.197 239.464 35.6629 239.585 35.0341H243.517C243.419 36.2689 243.055 37.3636 242.426 38.3182C241.797 39.2652 240.941 40.0076 239.858 40.5455C238.775 41.0758 237.502 41.3409 236.04 41.3409ZM255.611 23.5455V26.7273H245.577V23.5455H255.611ZM248.054 19.3636H252.168V35.75C252.168 36.303 252.251 36.7273 252.418 37.0227C252.592 37.3106 252.819 37.5076 253.099 37.6136C253.38 37.7197 253.69 37.7727 254.031 37.7727C254.289 37.7727 254.524 37.7538 254.736 37.7159C254.955 37.678 255.122 37.6439 255.236 37.6136L255.929 40.8295C255.709 40.9053 255.395 40.9886 254.986 41.0795C254.584 41.1705 254.092 41.2235 253.509 41.2386C252.478 41.2689 251.55 41.1136 250.724 40.7727C249.899 40.4242 249.243 39.8864 248.759 39.1591C248.281 38.4318 248.046 37.5227 248.054 36.4318V19.3636ZM266.477 41.3409C264.773 41.3409 263.295 40.9659 262.045 40.2159C260.795 39.4659 259.826 38.4167 259.136 37.0682C258.455 35.7197 258.114 34.1439 258.114 32.3409C258.114 30.5379 258.455 28.9583 259.136 27.6023C259.826 26.2462 260.795 25.1932 262.045 24.4432C263.295 23.6932 264.773 23.3182 266.477 23.3182C268.182 23.3182 269.659 23.6932 270.909 24.4432C272.159 25.1932 273.125 26.2462 273.807 27.6023C274.496 28.9583 274.841 30.5379 274.841 32.3409C274.841 34.1439 274.496 35.7197 273.807 37.0682C273.125 38.4167 272.159 39.4659 270.909 40.2159C269.659 40.9659 268.182 41.3409 266.477 41.3409ZM266.5 38.0455C267.424 38.0455 268.197 37.7917 268.818 37.2841C269.439 36.7689 269.902 36.0795 270.205 35.2159C270.515 34.3523 270.67 33.3902 270.67 32.3295C270.67 31.2614 270.515 30.2955 270.205 29.4318C269.902 28.5606 269.439 27.8674 268.818 27.3523C268.197 26.8371 267.424 26.5795 266.5 26.5795C265.553 26.5795 264.765 26.8371 264.136 27.3523C263.515 27.8674 263.049 28.5606 262.739 29.4318C262.436 30.2955 262.284 31.2614 262.284 32.3295C262.284 33.3902 262.436 34.3523 262.739 35.2159C263.049 36.0795 263.515 36.7689 264.136 37.2841C264.765 37.7917 265.553 38.0455 266.5 38.0455ZM278.332 41V23.5455H282.321V26.4545H282.503C282.821 25.447 283.366 24.6705 284.139 24.125C284.92 23.572 285.81 23.2955 286.81 23.2955C287.037 23.2955 287.291 23.3068 287.571 23.3295C287.859 23.3447 288.098 23.3712 288.287 23.4091V27.1932C288.113 27.1326 287.836 27.0795 287.457 27.0341C287.086 26.9811 286.726 26.9545 286.378 26.9545C285.628 26.9545 284.954 27.1174 284.355 27.4432C283.764 27.7614 283.298 28.2045 282.957 28.7727C282.616 29.3409 282.446 29.9962 282.446 30.7386V41H278.332ZM294.108 47.5455C293.547 47.5455 293.028 47.5 292.551 47.4091C292.081 47.3258 291.706 47.2273 291.426 47.1136L292.381 43.9091C292.979 44.0833 293.513 44.1667 293.983 44.1591C294.453 44.1515 294.866 44.0038 295.222 43.7159C295.585 43.4356 295.892 42.9659 296.142 42.3068L296.494 41.3636L290.165 23.5455H294.528L298.551 36.7273H298.733L302.767 23.5455H307.142L300.153 43.1136C299.828 44.0379 299.396 44.8295 298.858 45.4886C298.32 46.1553 297.661 46.6629 296.881 47.0114C296.108 47.3674 295.184 47.5455 294.108 47.5455ZM338.028 25.5795H333.778C333.657 24.8826 333.434 24.2652 333.108 23.7273C332.782 23.1818 332.377 22.7197 331.892 22.3409C331.407 21.9621 330.854 21.678 330.233 21.4886C329.619 21.2917 328.956 21.1932 328.244 21.1932C326.979 21.1932 325.858 21.5114 324.881 22.1477C323.903 22.7765 323.138 23.7008 322.585 24.9205C322.032 26.1326 321.756 27.6136 321.756 29.3636C321.756 31.1439 322.032 32.6439 322.585 33.8636C323.146 35.0758 323.911 35.9924 324.881 36.6136C325.858 37.2273 326.975 37.5341 328.233 37.5341C328.93 37.5341 329.581 37.4432 330.188 37.2614C330.801 37.072 331.35 36.7955 331.835 36.4318C332.328 36.0682 332.741 35.6212 333.074 35.0909C333.415 34.5606 333.65 33.9545 333.778 33.2727L338.028 33.2955C337.869 34.4015 337.525 35.4394 336.994 36.4091C336.472 37.3788 335.786 38.2348 334.938 38.9773C334.089 39.7121 333.097 40.2879 331.96 40.7045C330.824 41.1136 329.563 41.3182 328.176 41.3182C326.131 41.3182 324.305 40.8447 322.699 39.8977C321.093 38.9508 319.828 37.5833 318.903 35.7955C317.979 34.0076 317.517 31.8636 317.517 29.3636C317.517 26.8561 317.983 24.7121 318.915 22.9318C319.847 21.1439 321.116 19.7765 322.722 18.8295C324.328 17.8826 326.146 17.4091 328.176 17.4091C329.472 17.4091 330.676 17.5909 331.79 17.9545C332.903 18.3182 333.896 18.8523 334.767 19.5568C335.638 20.2538 336.354 21.1098 336.915 22.125C337.483 23.1326 337.854 24.2841 338.028 25.5795ZM345.821 17.7273V41H341.707V17.7273H345.821ZM361.176 33.6591V23.5455H365.29V41H361.301V37.8977H361.119C360.725 38.875 360.078 39.6742 359.176 40.2955C358.282 40.9167 357.18 41.2273 355.869 41.2273C354.725 41.2273 353.714 40.9735 352.835 40.4659C351.964 39.9508 351.282 39.2045 350.79 38.2273C350.297 37.2424 350.051 36.053 350.051 34.6591V23.5455H354.165V34.0227C354.165 35.1288 354.468 36.0076 355.074 36.6591C355.68 37.3106 356.475 37.6364 357.46 37.6364C358.066 37.6364 358.653 37.4886 359.222 37.1932C359.79 36.8977 360.256 36.4583 360.619 35.875C360.991 35.2841 361.176 34.5455 361.176 33.6591ZM369.702 41V17.7273H373.815V26.4318H373.986C374.198 26.0076 374.497 25.5568 374.884 25.0795C375.27 24.5947 375.793 24.1818 376.452 23.8409C377.111 23.4924 377.952 23.3182 378.974 23.3182C380.323 23.3182 381.539 23.6629 382.622 24.3523C383.713 25.0341 384.577 26.0455 385.213 27.3864C385.857 28.7197 386.179 30.3561 386.179 32.2955C386.179 34.2121 385.865 35.8409 385.236 37.1818C384.607 38.5227 383.751 39.5455 382.668 40.25C381.584 40.9545 380.357 41.3068 378.986 41.3068C377.986 41.3068 377.156 41.1402 376.497 40.8068C375.838 40.4735 375.308 40.072 374.906 39.6023C374.512 39.125 374.205 38.6742 373.986 38.25H373.747V41H369.702ZM373.736 32.2727C373.736 33.4015 373.895 34.3902 374.213 35.2386C374.539 36.0871 375.005 36.75 375.611 37.2273C376.224 37.697 376.967 37.9318 377.838 37.9318C378.747 37.9318 379.509 37.6894 380.122 37.2045C380.736 36.7121 381.198 36.0417 381.509 35.1932C381.827 34.3371 381.986 33.3636 381.986 32.2727C381.986 31.1894 381.83 30.2273 381.52 29.3864C381.209 28.5455 380.747 27.8864 380.134 27.4091C379.52 26.9318 378.755 26.6932 377.838 26.6932C376.959 26.6932 376.213 26.9242 375.599 27.3864C374.986 27.8485 374.52 28.4962 374.202 29.3295C373.891 30.1629 373.736 31.1439 373.736 32.2727Z" fill="white"/>
<defs>
<linearGradient id="paint0_linear_202_2" x1="-7.44278" y1="14.3934" x2="82.7324" y2="22.0162" gradientUnits="userSpaceOnUse">
<stop stop-color="#266FD9"/>
<stop offset="1" stop-color="#00FF94"/>
</linearGradient>
<linearGradient id="paint1_linear_202_2" x1="40.4818" y1="19.4663" x2="62.7606" y2="22.7006" gradientUnits="userSpaceOnUse">
<stop stop-color="#266FD9"/>
<stop offset="1" stop-color="#00FF94"/>
</linearGradient>
<clipPath id="clip0_202_2">
<rect width="71" height="55" fill="white"/>
</clipPath>
</defs>
</svg>
