<svg width="114" height="113" viewBox="0 0 114 113" fill="none" xmlns="http://www.w3.org/2000/svg">
<path fill-rule="evenodd" clip-rule="evenodd" d="M113 86.4667V75.2754C113.032 73.3491 112.355 71.4782 111.096 70.0194C109.838 68.5606 108.087 67.6159 106.177 67.3654C105.551 67.304 104.923 67.3193 104.308 67.4084V19.5577V8.69231C104.308 6.38696 103.392 4.17604 101.762 2.54592C100.132 0.915794 97.9207 0 95.6154 0H67.3654C66.789 0 66.2363 0.228949 65.8288 0.63648C65.4213 1.04401 65.1923 1.59674 65.1923 2.17308C65.1923 2.74941 65.4213 3.30214 65.8288 3.70967C66.2363 4.11721 66.789 4.34615 67.3654 4.34615H95.6154C96.7681 4.34615 97.8735 4.80405 98.6886 5.61911C99.5036 6.43418 99.9615 7.53964 99.9615 8.69231V17.3846H4.34615V8.69231C4.34615 7.53964 4.80405 6.43418 5.61911 5.61911C6.43418 4.80405 7.53964 4.34615 8.69231 4.34615H49.9808C50.5571 4.34615 51.1098 4.1172 51.5174 3.70967C51.9249 3.30214 52.1538 2.74941 52.1538 2.17308C52.1538 1.59674 51.9249 1.04401 51.5174 0.63648C51.1098 0.228949 50.5571 0 49.9808 0H8.69231C6.38696 0 4.17604 0.915794 2.54592 2.54592C0.915794 4.17604 0 6.38696 0 8.69231V19.5577V45.6346C0 46.2109 0.228949 46.7637 0.63648 47.1712C1.04401 47.5787 1.59674 47.8077 2.17308 47.8077C2.74941 47.8077 3.30214 47.5787 3.70967 47.1712C4.1172 46.7637 4.34615 46.2109 4.34615 45.6346V21.7308H99.9615V65.3207C99.9338 65.2916 99.9059 65.2627 99.8777 65.234C99.0368 64.3787 98.004 63.7363 96.8651 63.3602C95.7261 62.9841 94.5139 62.8852 93.329 63.0715C92.1441 63.2579 91.0208 63.7242 90.0523 64.4317C89.4507 63.4482 88.6333 62.6144 87.662 61.9932C86.6907 61.372 85.5909 60.9798 84.4458 60.8462C83.0566 60.7268 81.6609 60.982 80.4038 61.585V49.9808H85.4237C87.4988 49.9846 89.4997 49.2091 91.0302 47.8077C91.7804 47.1136 92.3812 46.2739 92.7959 45.3398C93.2106 44.4058 93.4306 43.3969 93.4423 42.375C93.3798 40.3057 92.5018 38.345 90.9997 36.9203C89.4977 35.4956 87.4934 34.7224 85.4237 34.7692H66.6917C64.6166 34.7654 62.6157 35.5409 61.0852 36.9423C60.335 37.6364 59.7342 38.4761 59.3195 39.4102C58.9048 40.3442 58.6848 41.3531 58.6731 42.375C58.7356 44.4443 59.6136 46.405 61.1157 47.8297C62.2506 48.9062 63.6723 49.6107 65.1923 49.8706V63.0192C63.217 61.5352 60.7949 60.7687 58.3254 60.8462C56.6573 60.9352 55.0871 61.6612 53.9388 62.8743C52.7904 64.0874 52.1515 65.695 52.1538 67.3654V78.2308H8.69231C7.53964 78.2308 6.43418 77.7729 5.61911 76.9578C4.80405 76.1428 4.34615 75.0373 4.34615 73.8846V54.3269C4.34615 53.7506 4.1172 53.1979 3.70967 52.7903C3.30214 52.3828 2.74941 52.1538 2.17308 52.1538C1.59674 52.1538 1.04401 52.3828 0.63648 52.7903C0.228949 53.1979 0 53.7506 0 54.3269V73.8846C0 76.19 0.915794 78.4009 2.54592 80.031C4.17604 81.6611 6.38696 82.5769 8.69231 82.5769H52.1538V86.5537C52.162 91.7184 53.4456 96.8011 55.8909 101.35C58.3361 105.9 61.8671 109.774 66.1702 112.631C66.6473 112.887 67.2028 112.955 67.7279 112.823C68.253 112.691 68.7098 112.367 69.0089 111.916C69.3079 111.465 69.4278 110.918 69.3448 110.383C69.2619 109.848 68.9822 109.363 68.5606 109.023C64.8485 106.547 61.8054 103.193 59.7014 99.2575C57.5975 95.3225 56.4978 90.9289 56.5 86.4667V80.4038V67.3654C56.4973 66.8248 56.6962 66.3026 57.0578 65.9008C57.4195 65.499 57.9179 65.2464 58.4558 65.1923C59.33 65.1631 60.2012 65.3102 61.0174 65.6248C61.8336 65.9393 62.5781 66.4149 63.2067 67.0232C63.8353 67.6315 64.335 68.36 64.6761 69.1655C65.0172 69.971 65.1928 70.8368 65.1923 71.7115V80.4038C65.1923 80.9802 65.4212 81.5329 65.8288 81.9404C66.2363 82.348 66.789 82.5769 67.3654 82.5769C67.9417 82.5769 68.4945 82.348 68.902 81.9404C69.3095 81.5329 69.5385 80.9802 69.5385 80.4038V71.7115V49.1985C69.5296 48.9954 69.5387 48.7932 69.565 48.5942C69.6416 48.3969 69.6894 48.1882 69.7059 47.9746C69.8373 47.5724 70.0425 47.1943 70.3147 46.8612C70.8518 46.2039 71.612 45.7673 72.4504 45.6346C72.9067 45.5857 73.3683 45.6336 73.8048 45.7753C74.2413 45.9171 74.643 46.1494 74.9835 46.4571C75.3241 46.7648 75.5958 47.141 75.7809 47.561C75.966 47.9809 76.0603 48.4353 76.0577 48.8942V68.4519C76.0577 69.0283 76.2866 69.581 76.6942 69.9885C77.1017 70.396 77.6544 70.625 78.2308 70.625C78.8071 70.625 79.3598 70.396 79.7674 69.9885C80.1749 69.581 80.4038 69.0283 80.4038 68.4519C80.4019 67.9944 80.4956 67.5416 80.6789 67.1224C80.8623 66.7033 81.1313 66.3271 81.4687 66.0181C81.8084 65.7062 82.2114 65.471 82.65 65.3285C83.0887 65.186 83.5529 65.1396 84.0112 65.1923C84.8495 65.325 85.6097 65.7616 86.1468 66.4189C86.6839 67.0762 86.9602 67.9082 86.9231 68.7561V70.625C86.9231 71.2013 87.152 71.7541 87.5596 72.1616C87.9671 72.5691 88.5198 72.7981 89.0962 72.7981C89.6725 72.7981 90.2252 72.5691 90.6328 72.1616C91.0403 71.7541 91.2692 71.2013 91.2692 70.625C91.2672 70.1675 91.3609 69.7146 91.5443 69.2955C91.7277 68.8764 91.9967 68.5002 92.334 68.1912C92.6738 67.8792 93.0767 67.6441 93.5154 67.5016C93.9541 67.3591 94.4183 67.3127 94.8765 67.3654C95.7149 67.498 96.4751 67.9346 97.0122 68.5919C97.5493 69.2492 97.8256 70.0812 97.7885 70.9292V74.9712C97.7885 75.5475 98.0174 76.1002 98.4249 76.5078C98.8325 76.9153 99.3852 77.1442 99.9615 77.1442C100.538 77.1442 101.091 76.9153 101.498 76.5078C101.906 76.1002 102.135 75.5475 102.135 74.9712C102.133 74.5137 102.226 74.0608 102.41 73.6417C102.593 73.2225 102.862 72.8463 103.199 72.5373C103.218 72.52 103.237 72.5028 103.257 72.486C103.386 72.4078 103.508 72.3157 103.62 72.2108C103.856 72.0574 104.112 71.9351 104.381 71.8477C104.819 71.7053 105.284 71.6588 105.742 71.7115C106.58 71.8442 107.341 72.2808 107.878 72.9381C108.415 73.5954 108.691 74.4274 108.654 75.2754V86.4667C108.653 89.3504 108.206 92.2167 107.328 94.9635C107.207 95.337 107.19 95.7364 107.278 96.119C107.366 96.5016 107.556 96.8533 107.828 97.1365C108.087 97.3963 108.408 97.5863 108.76 97.6888C109.112 97.7913 109.485 97.8029 109.842 97.7226C110.2 97.6424 110.532 97.4728 110.807 97.2297C111.082 96.9867 111.29 96.678 111.414 96.3325C112.47 93.1507 113.005 89.8192 113 86.4667ZM65.9965 45.6045C66.2887 45.0104 66.657 44.4514 67.0959 43.9425C68.3543 42.4837 70.1056 41.539 72.0158 41.2885C73.079 41.1751 74.1541 41.2878 75.1707 41.6192C76.1873 41.9506 77.1223 42.4932 77.9144 43.2114C78.6653 43.8923 79.2717 44.7164 79.6982 45.6346H85.5323C86.5088 45.6382 87.4524 45.2824 88.1835 44.635C88.4903 44.3594 88.7387 44.0251 88.9142 43.6519C89.0896 43.2786 89.1884 42.874 89.2048 42.4619C89.1889 41.9896 89.0769 41.5255 88.8757 41.098C88.6744 40.6704 88.3881 40.2884 88.0342 39.9752C87.6803 39.662 87.2663 39.4242 86.8175 39.2764C86.3687 39.1285 85.8944 39.0738 85.4237 39.1154H66.6917C65.7153 39.1118 64.7716 39.4676 64.0406 40.115C63.7338 40.3906 63.4853 40.7249 63.3099 41.0981C63.1344 41.4714 63.0356 41.876 63.0192 42.2881C63.0358 42.7505 63.1446 43.205 63.3391 43.6249C63.5336 44.0448 63.81 44.4216 64.1521 44.7333C64.4941 45.045 64.8949 45.2852 65.331 45.44C65.5474 45.5168 65.7704 45.5718 65.9965 45.6045ZM13.0385 13.0385C14.2386 13.0385 15.2115 12.0655 15.2115 10.8654C15.2115 9.66523 14.2386 8.69231 13.0385 8.69231C11.8383 8.69231 10.8654 9.66523 10.8654 10.8654C10.8654 12.0655 11.8383 13.0385 13.0385 13.0385ZM23.9038 13.0385C25.104 13.0385 26.0769 12.0655 26.0769 10.8654C26.0769 9.66523 25.104 8.69231 23.9038 8.69231C22.7037 8.69231 21.7308 9.66523 21.7308 10.8654C21.7308 12.0655 22.7037 13.0385 23.9038 13.0385ZM36.9423 10.8654C36.9423 12.0655 35.9694 13.0385 34.7692 13.0385C33.5691 13.0385 32.5962 12.0655 32.5962 10.8654C32.5962 9.66523 33.5691 8.69231 34.7692 8.69231C35.9694 8.69231 36.9423 9.66523 36.9423 10.8654ZM106.72 102.135C107.083 102.494 107.309 102.969 107.356 103.478C107.404 103.987 107.271 104.496 106.981 104.916C104.786 107.917 102.079 110.507 98.9837 112.565C98.6416 112.834 98.223 112.986 97.7885 113C97.3242 112.996 96.8733 112.844 96.5018 112.566C96.1303 112.287 95.8577 111.897 95.7241 111.452C95.5905 111.008 95.6028 110.532 95.7592 110.095C95.9156 109.658 96.2079 109.282 96.5933 109.023C99.2313 107.258 101.547 105.053 103.438 102.504C103.615 102.244 103.845 102.026 104.113 101.864C104.382 101.701 104.682 101.599 104.994 101.564C105.306 101.529 105.622 101.562 105.919 101.66C106.217 101.759 106.49 101.921 106.72 102.135ZM58.6731 0C59.8732 0 60.8462 0.97292 60.8462 2.17308C60.8462 3.37323 59.8732 4.34615 58.6731 4.34615C57.4729 4.34615 56.5 3.37323 56.5 2.17308C56.5 0.97292 57.4729 0 58.6731 0ZM13.0385 54.3269H49.9808C50.5571 54.3269 51.1098 54.098 51.5174 53.6904C51.9249 53.2829 52.1538 52.7302 52.1538 52.1538V30.4231C52.1538 29.8467 51.9249 29.294 51.5174 28.8865C51.1098 28.4789 50.5571 28.25 49.9808 28.25H13.0385C12.4621 28.25 11.9094 28.4789 11.5019 28.8865C11.0943 29.294 10.8654 29.8467 10.8654 30.4231V52.1538C10.8654 52.7302 11.0943 53.2829 11.5019 53.6904C11.9094 54.098 12.4621 54.3269 13.0385 54.3269ZM47.8077 49.9808H15.2115V32.5962H47.8077V49.9808ZM15.2115 63.0192H47.8077C48.384 63.0192 48.9368 62.7903 49.3443 62.3828C49.7518 61.9752 49.9808 61.4225 49.9808 60.8462C49.9808 60.2698 49.7518 59.7171 49.3443 59.3096C48.9368 58.902 48.384 58.6731 47.8077 58.6731H15.2115C14.6352 58.6731 14.0825 58.902 13.6749 59.3096C13.2674 59.7171 13.0385 60.2698 13.0385 60.8462C13.0385 61.4225 13.2674 61.9752 13.6749 62.3828C14.0825 62.7903 14.6352 63.0192 15.2115 63.0192ZM15.2115 71.7115H34.7692C35.3456 71.7115 35.8983 71.4826 36.3058 71.0751C36.7134 70.6675 36.9423 70.1148 36.9423 69.5385C36.9423 68.9621 36.7134 68.4094 36.3058 68.0019C35.8983 67.5943 35.3456 67.3654 34.7692 67.3654H15.2115C14.6352 67.3654 14.0825 67.5943 13.6749 68.0019C13.2674 68.4094 13.0385 68.9621 13.0385 69.5385C13.0385 70.1148 13.2674 70.6675 13.6749 71.0751C14.0825 71.4826 14.6352 71.7115 15.2115 71.7115Z" fill="#2880FF"/>
</svg>
