<svg width="60" height="60" viewBox="0 0 60 60" fill="none" xmlns="http://www.w3.org/2000/svg">
<path d="M29.9642 0C34.1219 0 38.0167 0.788531 41.6487 2.36559C45.2808 3.94265 48.4588 6.08124 51.1828 8.78136C53.9068 11.4815 56.0574 14.6476 57.6344 18.2796C59.2115 21.9116 60 25.8065 60 29.9642C60 34.1219 59.2115 38.0167 57.6344 41.6487C56.0574 45.2808 53.9068 48.4588 51.1828 51.1828C48.4588 53.9068 45.2808 56.0574 41.6487 57.6344C38.0167 59.2115 34.1219 60 29.9642 60C25.8065 60 21.9116 59.2115 18.2796 57.6344C14.6476 56.0574 11.4815 53.9068 8.78136 51.1828C6.08124 48.4588 3.94265 45.2808 2.36559 41.6487C0.788531 38.0167 0 34.1219 0 29.9642C0 25.8065 0.788531 21.9116 2.36559 18.2796C3.94265 14.6476 6.08124 11.4815 8.78136 8.78136C11.4815 6.08124 14.6476 3.94265 18.2796 2.36559C21.9116 0.788531 25.8065 0 29.9642 0ZM44.8746 23.5125C46.2605 22.4612 47.4791 21.1947 48.5305 19.7133C47.8614 20 47.1804 20.2389 46.4875 20.4301C45.7945 20.6213 45.0657 20.7646 44.3011 20.8602C45.0657 20.3823 45.7348 19.7969 46.3082 19.1039C46.8817 18.411 47.2879 17.6583 47.5269 16.8459C46.81 17.2282 46.0693 17.5747 45.3047 17.8853C44.54 18.1959 43.7515 18.4229 42.9391 18.5663C42.27 17.8973 41.4815 17.3477 40.5735 16.9176C39.6655 16.4875 38.6619 16.2724 37.5627 16.2724C36.5591 16.2724 35.6153 16.4636 34.7312 16.8459C33.8471 17.2282 33.0824 17.7539 32.4373 18.4229C31.7921 19.092 31.2784 19.8686 30.8961 20.7527C30.5137 21.6368 30.3226 22.5806 30.3226 23.5842C30.3226 23.871 30.3345 24.1577 30.3584 24.4444C30.3823 24.7312 30.4182 24.994 30.466 25.233C27.4552 25.0896 24.6595 24.3489 22.0789 23.0108C19.4982 21.6726 17.2999 19.8805 15.4839 17.6344C14.8148 18.7336 14.4803 19.9522 14.4803 21.2903C14.4803 22.5329 14.779 23.6918 15.3763 24.767C15.9737 25.8423 16.7503 26.7145 17.7061 27.3835C16.4636 27.2879 15.3644 26.9773 14.4086 26.4516V26.5233C14.4086 28.3393 14.9701 29.9044 16.0932 31.2186C17.2162 32.5329 18.6141 33.3572 20.2867 33.6918C19.9522 33.7873 19.6296 33.859 19.319 33.9068C19.0084 33.9546 18.6858 33.9785 18.3513 33.9785C18.1123 33.9785 17.8853 33.9665 17.6703 33.9427C17.4552 33.9188 17.2282 33.8829 16.9892 33.8351C17.4671 35.2688 18.3154 36.4636 19.5341 37.4194C20.7527 38.3752 22.1744 38.853 23.7993 38.853C22.5568 39.8566 21.1589 40.6332 19.6057 41.1828C18.0526 41.7324 16.4397 42.0072 14.767 42.0072C14.4325 42.0072 14.1219 41.9952 13.8351 41.9713C13.5484 41.9474 13.2616 41.9116 12.9749 41.8638C14.5998 42.9152 16.356 43.7276 18.2437 44.3011C20.1314 44.8746 22.1027 45.1613 24.1577 45.1613C27.503 45.1613 30.466 44.5281 33.0466 43.2617C35.6272 41.9952 37.7897 40.3704 39.5341 38.3871C41.2784 36.4038 42.6045 34.1816 43.5125 31.7204C44.4206 29.2593 44.8746 26.8339 44.8746 24.4444V23.5125Z" fill="#2880FF"/>
</svg>
