<svg width="56" height="56" viewBox="0 0 56 56" fill="none" xmlns="http://www.w3.org/2000/svg">
<path d="M49.1867 20.0203V35.9803C49.1867 38.5937 47.7867 41.0203 45.5234 42.3503L31.6634 50.3537C29.4 51.6603 26.6 51.6603 24.3134 50.3537L10.4534 42.3503C9.33752 41.7034 8.41156 40.7741 7.76853 39.656C7.1255 38.5379 6.78804 37.2702 6.79005 35.9803V20.0203C6.79005 17.407 8.19005 14.9803 10.4534 13.6503L24.3134 5.64699C26.5767 4.34033 29.3767 4.34033 31.6634 5.64699L45.5234 13.6503C47.7867 14.9803 49.1867 17.3837 49.1867 20.0203Z" stroke="url(#paint0_linear_8_182)" stroke-width="1.5" stroke-linecap="round" stroke-linejoin="round"/>
<path d="M37.3333 38.873C37.3333 34.673 33.1566 31.2663 28 31.2663C22.8433 31.2663 18.6666 34.673 18.6666 38.873M28 25.6663C29.4419 25.6663 30.8247 25.0935 31.8443 24.0739C32.8638 23.0544 33.4366 21.6715 33.4366 20.2296C33.4366 18.7877 32.8638 17.4049 31.8443 16.3853C30.8247 15.3658 29.4419 14.793 28 14.793C26.5581 14.793 25.1752 15.3658 24.1557 16.3853C23.1361 17.4049 22.5633 18.7877 22.5633 20.2296C22.5633 21.6715 23.1361 23.0544 24.1557 24.0739C25.1752 25.0935 26.5581 25.6663 28 25.6663Z" stroke="url(#paint1_linear_8_182)" stroke-width="1.5" stroke-linecap="round" stroke-linejoin="round"/>
<defs>
<linearGradient id="paint0_linear_8_182" x1="27.9884" y1="4.66699" x2="27.9884" y2="51.3337" gradientUnits="userSpaceOnUse">
<stop stop-color="#00FF94"/>
<stop offset="1" stop-color="#2880FF"/>
</linearGradient>
<linearGradient id="paint1_linear_8_182" x1="28" y1="14.793" x2="28" y2="38.873" gradientUnits="userSpaceOnUse">
<stop stop-color="#00FF94"/>
<stop offset="1" stop-color="#2880FF"/>
</linearGradient>
</defs>
</svg>
